<svg xmlns="http://www.w3.org/2000/svg" width="256" height="256"><path fill="#1976D2" fill-opacity=".016" fill-rule="evenodd" d="M0 128.004v128.004l128.25-.254 128.25-.254.254-127.75L257.008 0H0v128.004m.485.496c0 70.4.119 99.053.265 63.672.146-35.38.146-92.98 0-128C.604 29.153.485 58.1.485 128.5"/><path fill="#1976D2" fill-opacity=".167" fill-rule="evenodd" d="M125.62 46.288c-2.662 1.947-3.798 12.07-4.498 40.077l-.622 24.865-13.148-15.865C81.75 64.474 65.498 51 53.84 51c-4.719 0-4.84.076-4.84 3.021 0 3.62 2.523 6.272 29 30.479 21.209 19.392 32.883 30.83 35.392 34.68 1.663 2.552 1.662 2.814-.023 5.5-4.738 7.551-15.131 19.856-23.059 27.3-9.437 8.862-40.744 34.375-47.119 38.399-5.429 3.427-9.191 8.216-9.191 11.698 0 3.14 3.027 6.923 5.54 6.923 3.352 0 10.455-4.765 26.348-17.678 31.575-25.652 45.204-38.798 51.679-49.845 1.442-2.463 2.81-4.477 3.037-4.477.228 0 .373 12.488.322 27.75-.11 32.707.408 35.75 6.078 35.75 3.079 0 3.735-.478 5.496-4 1.872-3.745 1.985-5.741 1.77-31.303l-.229-27.304 4.922 7.36c6.438 9.625 23.889 26.417 47.545 45.747 17.529 14.325 25.805 20 29.161 20 2.543 0 5.331-3.907 5.331-7.472 0-4.092-2.03-6.213-15.5-16.188-27.568-20.416-49.622-40.726-59.858-55.124l-5.857-8.239 1.782-2.738c2.571-3.953 15.254-16.406 36.433-35.774 26.098-23.867 28-25.868 28-29.462 0-2.916-.138-3.003-4.75-3.002-6.193.001-14.901 4.135-22.75 10.8-6.466 5.491-21.481 21.919-33.999 37.199-4.281 5.225-8.428 10.175-9.216 11-1.244 1.303-1.342-2.641-.74-30 .691-31.417.687-31.507-1.499-34.25-2.393-3.003-4.698-3.457-7.426-1.462"/><path fill="#1976D2" fill-opacity=".761" fill-rule="evenodd" d="M126.06 46.751c-3.262 2.641-5.013 20.43-4.479 45.499.231 10.862.082 19.726-.33 19.697-.413-.029-5.926-6.412-12.251-14.184-16.207-19.914-34.846-38.504-42.722-42.608-6.753-3.519-15.511-5.205-16.737-3.221-1.813 2.933 1.557 6.936 21.209 25.185C98.271 102.676 115 119.482 115 121.572c0 2.804-10.91 17.134-20.044 26.328-9.282 9.342-29.956 26.611-47.565 39.73-11.357 8.461-14.243 12.111-12.906 16.323.367 1.155 1.768 2.822 3.114 3.704 2.3 1.507 2.734 1.454 7.22-.873 6.498-3.372 41.026-31.784 54.949-45.217 6.241-6.021 13.526-14.213 16.215-18.234l4.884-7.301.316 29.78c.285 26.748.502 30.063 2.13 32.546 2.261 3.447 5.198 3.201 8.087-.679 2.002-2.69 2.114-4.175 2.407-31.881l.307-29.059 3.693 6.369c4.552 7.852 21.266 24.854 37.79 38.444 33.004 27.142 34.653 28.328 39.498 28.406 5.117.083 7.625-6.058 4.371-10.703-.843-1.204-6.633-5.982-12.865-10.616-16.601-12.346-39.989-32.197-48.724-41.357-7.698-8.073-17.877-21.606-17.877-23.768 0-2.2 11.104-13.447 38.059-38.551 25.592-23.833 29.272-28 27.405-31.021-1.176-1.903-9.728-.535-16.139 2.581-7.544 3.666-25.456 21.414-42.636 42.245l-12.592 15.268-.629-3.355c-.346-1.845-.143-11.607.451-21.694 1.596-27.071 1.444-37.012-.611-40.014-3.015-4.407-4.129-4.748-7.248-2.222"/><path fill="#1976D2" fill-opacity=".96" fill-rule="evenodd" d="M125.393 47.173c-1.896 3.068-2.619 11.52-3.23 37.761l-.663 28.434-14.124-16.934C79.63 63.166 67.167 52.563 54.966 51.843c-5.245-.309-6.58 1.069-4.65 4.801.817 1.58 14.243 14.652 29.835 29.048 15.592 14.395 28.799 26.828 29.349 27.627.55.8 2.277 3.062 3.838 5.027l2.838 3.573-5.338 7.772c-9.526 13.869-28.648 31.781-56.733 53.142-16.999 12.93-19.438 15.31-19.438 18.964 0 6.005 4.276 7.834 10.633 4.549 4.144-2.142 34.997-27.276 49.358-40.208 11.043-9.945 21.141-21.603 24.154-27.888.857-1.787 1.813-3.25 2.123-3.251.311 0 .434 11.362.274 25.25-.319 27.643.682 38.087 3.811 39.762 2.566 1.373 4.766.273 6.766-3.382 1.477-2.7 1.757-7.025 2.046-31.534l.333-28.405 3.741 5.905c7.878 12.436 18.713 22.993 49.617 48.347 24.034 19.717 29.209 22.219 32.354 15.638 1.238-2.592 1.188-3.304-.45-6.346-1.015-1.884-3.889-4.812-6.386-6.507-17.55-11.911-51.563-40.946-60.272-51.451-8.672-10.461-13.881-18.411-12.915-19.713 5.198-7.009 12.297-14.097 36.062-36.004 26.293-24.236 31.307-29.771 29.548-32.616-1.166-1.887-9.215-.306-16.428 3.227-8.087 3.961-22.855 18.604-41.504 41.151C140.4 106.944 134.153 114 133.65 114c-.551 0-.564-8.635-.032-21.75 1.237-30.503.999-40.66-1.026-43.75-1.733-2.645-5.909-3.415-7.199-1.327"/></svg>