<svg xmlns="http://www.w3.org/2000/svg" width="256" height="256"><path fill="#1976D2" fill-opacity=".016" fill-rule="evenodd" d="M0 128.004v128.004l128.25-.254 128.25-.254.254-127.75L257.008 0H0v128.004m.485.496c0 70.4.119 99.053.265 63.672.146-35.38.146-92.98 0-128C.604 29.153.485 58.1.485 128.5"/><path fill="#1976D2" fill-opacity=".191" fill-rule="evenodd" d="M167 64.974c-23.756 17.641-38.537 29.288-40.329 31.779l-2.829 3.933-4.671-4.787c-5.135-5.263-66.16-54.88-67.513-54.892-.463-.004-.68 6.631-.483 14.743.279 11.501.733 15.443 2.064 17.897 1.038 1.916 12.941 12.009 30.423 25.799 15.795 12.458 29.353 23.557 30.128 24.665.776 1.108 1.653 4.68 1.948 7.937l.537 5.924-32.387.264-32.388.264-.282 11.75-.281 11.75h155.126l-.281-11.75-.282-11.75-33.75-.263-33.75-.264.006-5.236c.012-11.255-1.067-10.071 32.747-35.961 16.911-12.947 31.647-24.54 32.747-25.761 1.788-1.986 2.036-3.905 2.338-18.118.186-8.743-.039-15.868-.5-15.834-.461.035-17.713 12.595-38.338 27.911M79.435 172.308c-.28.73-.38 6.022-.222 11.76L79.5 194.5l49.282.259 49.282.26-.282-11.76-.282-11.759-48.778-.26c-39.793-.211-48.871-.015-49.287 1.068M104 216v12h49v-24h-49v12"/><path fill="#1976D2" fill-opacity=".64" fill-rule="evenodd" d="M167.521 65.002c-33.591 25.049-41.502 31.543-42.738 35.082-.349.997-1.647.179-4.389-2.766-2.142-2.301-18.438-15.932-36.213-30.292l-32.32-26.109.32 15.979.319 15.978 3 3.143c1.65 1.728 15.189 12.759 30.087 24.514 14.898 11.754 27.711 22.124 28.474 23.043.776.934 1.559 4.703 1.776 8.549l.389 6.877H52v23h153v-23h-67.205l.352-8.347c.224-5.299.874-8.975 1.78-10.066.785-.945 15.467-12.471 32.628-25.613 17.16-13.142 31.481-24.625 31.823-25.516.89-2.321.772-31.475-.128-31.372-.412.048-16.94 12.16-36.729 26.916M80 183.5V195h97v-23H80v11.5m24.217 32.75.283 11.25h48l.283-11.25.283-11.25h-49.132l.283 11.25"/><path fill="#1976D2" fill-opacity=".973" fill-rule="evenodd" d="M167.5 65.562c-34.955 25.877-42.5 32.117-42.5 35.15 0 2.019-.821 1.562-4.281-2.385-1.77-2.02-17.844-15.538-35.719-30.04L52.5 41.919l-.278 13.506c-.205 9.938.097 14.404 1.143 16.907 1.082 2.589 8.435 8.948 30.778 26.618 16.147 12.768 29.946 24.327 30.666 25.685.72 1.358 1.395 5.033 1.5 8.167l.191 5.698-32.25.264-32.25.264V161h153v-22h-68.289l.56-7.399c.308-4.07 1.168-8.56 1.911-9.978.743-1.418 14.393-12.538 30.334-24.71 15.941-12.172 30.216-23.286 31.722-24.697 3.488-3.27 3.924-5.89 3.56-21.381l-.298-12.664-37 27.391M80 183v11h97v-22H80v11m25 33v11h48v-22h-48v11"/></svg>