<svg xmlns="http://www.w3.org/2000/svg" width="256" height="256"><path fill="#1976D2" fill-opacity=".016" fill-rule="evenodd" d="M0 128.004v128.004l128.25-.254 128.25-.254.254-127.75L257.008 0H0v128.004m.485.496c0 70.4.119 99.053.265 63.672.146-35.38.146-92.98 0-128C.604 29.153.485 58.1.485 128.5"/><path fill="#1976D2" fill-opacity=".279" fill-rule="evenodd" d="M195 76.522c-67.862 56.908-67.169 56.299-71.127 62.424-1.58 2.445-2.873 3.909-2.873 3.253 0-.656-1.687-3.069-3.75-5.361C113.52 132.692 1.42 33 .488 33 .22 33 0 40.889 0 50.532c0 12.647.385 18.453 1.38 20.836.97 2.322 16.656 16.78 52.75 48.623 28.254 24.926 52.35 46.487 53.549 47.914 2.976 3.545 4.321 9.469 4.321 19.038V195H0v35.008l128.25-.254 128.25-.254.272-17.5.272-17.5-59.143.266-59.143.266.433-12.266c.491-13.881 1.232-15.96 7.979-22.398 4.019-3.836 89.87-78.44 101.558-88.254 2.873-2.413 5.539-5.338 5.924-6.5.677-2.041.726-2.028 1.425.386.927 3.204 1.037-31.224.115-36.356l-.692-3.856L195 76.522M.415 51c0 10.175.149 14.337.33 9.25.182-5.088.182-13.413 0-18.5-.181-5.088-.33-.925-.33 9.25M.413 212.5c.001 9.9.151 13.815.333 8.699.182-5.115.181-13.215-.002-18-.183-4.784-.332-.599-.331 9.301"/><path fill="#1976D2" fill-opacity=".707" fill-rule="evenodd" d="M192.5 79.078c-56.535 47.422-66.264 56.101-70.076 62.509-.976 1.64-1.257 1.497-3-1.528-1.058-1.835-27.349-25.839-58.424-53.342C29.925 59.215 3.451 35.765 2.168 34.606L-.164 32.5l.332 18.581C.488 69.013.587 69.786 3 73.247c1.375 1.972 25.726 24.067 54.114 49.1 42.908 37.838 51.89 46.205 53.25 49.604 1.132 2.831 1.636 7.162 1.636 14.069V196H0v34.008l128.25-.254 128.25-.254.273-17 .272-17-59.121.266-59.121.266.404-13.266c.261-8.576.898-14.271 1.801-16.108.769-1.564 26.501-24.639 57.183-51.279 40.427-35.102 55.978-49.186 56.485-51.158l.7-2.721.712 2.5c.92 3.228 1.019-29.333.104-34.134l-.692-3.634-63 52.846M.411 50c0 9.625.15 13.563.334 8.75.183-4.813.183-12.688 0-17.5C.561 36.438.411 40.375.411 50m0 163c0 9.625.15 13.563.334 8.75.183-4.813.183-12.688 0-17.5-.184-4.812-.334-.875-.334 8.75"/><path fill="#1976D2" fill-opacity=".962" fill-rule="evenodd" d="M193.776 78.339c-33.398 28.138-62.541 52.946-64.763 55.127-2.222 2.181-4.574 5.444-5.227 7.25-1.096 3.029-2.786 4.481-2.786 2.392 0-.49-2.049-3.17-4.552-5.955C111.774 131.955 1.625 34 .453 34c-.358 0-.482 7.763-.275 17.25.302 13.876.711 17.873 2.09 20.434.944 1.752 24.782 23.554 52.974 48.45 28.192 24.896 51.83 45.963 52.528 46.816 3.666 4.472 4.445 7.523 4.586 17.956l.144 10.594-56.25.258-56.25.259v33.991l128.25-.254 128.25-.254.273-17 .272-17H138.5l.08-11.5c.044-6.325.611-13.097 1.261-15.048.649-1.952 3.314-5.612 5.92-8.134 4.488-4.342 91.294-79.823 101.573-88.322 5.131-4.242 7.591-7.938 7.784-11.696.099-1.917.246-1.801.882.7.469 1.844.809-2.435.882-11.11.117-14.044-.598-23.47-1.768-23.301-.338.048-27.94 23.111-61.338 51.25M.405 49.5c.001 8.8.154 12.266.34 7.703.185-4.564.184-11.764-.003-16C.555 36.966.404 40.7.405 49.5M.411 213c0 9.625.15 13.563.334 8.75.183-4.813.183-12.688 0-17.5-.184-4.812-.334-.875-.334 8.75"/></svg>