<svg width="984" height="869" viewBox="0 0 984 869" fill="none" xmlns="http://www.w3.org/2000/svg">
<path d="M492.115 798.248C472.707 796.67 462.003 802.932 458.217 757.971C455.43 712.16 456.348 632.231 460.972 518.183L465.042 416.648C466.05 381.379 463.977 326.789 458.824 252.878C458.652 243.561 462.779 195.532 460.142 147.873C457.506 100.215 476.897 98.1144 479.828 62.0718C480.279 56.5268 473.607 35.992 479.828 28.1254C486.125 19.3345 478.665 8.89747 486.982 9.57386C498.997 10.5509 506.401 16.7347 509.196 28.1254C512.915 39.5912 514.786 50.9067 514.808 62.0718C515.829 72.388 516.228 78.9323 516.002 81.7048C520.27 97.8666 522.662 119.923 523.18 147.873C523.773 174.9 523.754 203.737 523.122 234.385C521.934 294.756 522.136 338.031 523.728 364.208L571.662 306.708C638.948 222.872 698.799 156.108 751.214 106.414C804.554 56.7955 854.253 34.7892 900.311 40.3952C903.707 44.3925 905.18 49.1637 904.729 54.7087C903.977 63.9504 898.492 74.2025 888.274 85.4652C878.055 96.7279 862.915 111.311 842.853 129.216L811.262 157.346C800.119 168.534 766.379 200.21 710.041 252.376C670.917 287.336 638.713 317.277 613.429 342.199C588.146 367.121 568.595 390.183 554.777 411.386C590.856 471.067 634.854 524.881 686.772 572.826C739.614 620.846 808.915 678.112 894.673 744.624L934.119 774.345C950.228 782.167 962.453 791.999 970.792 803.84C980.132 814.833 984.35 825.874 983.448 836.964C982.997 842.509 981.16 847.941 977.937 853.261C970.566 863.825 962.259 868.731 953.018 867.979C942.852 867.153 925.357 859.218 900.532 844.175L829.958 785.41C752.99 725.195 687.736 669.653 634.195 618.785C580.654 567.917 544.485 520.788 525.687 477.396L525.55 582.042C526.126 677.907 525.099 742.013 522.469 774.359C520.59 797.463 508.141 787.291 503.844 794.384C499.621 800.552 501.357 798.999 492.115 798.248Z" fill="black"/>
<path d="M490.56 818.28C509.967 816.7 521.562 793.429 525.344 748.467C528.126 702.656 527.2 622.727 522.567 508.679L518.486 407.145C517.476 371.876 519.543 317.286 524.689 243.374C524.861 234.057 526.263 205.569 528.895 157.911C531.527 110.252 531.375 68.401 528.441 32.3587C527.99 26.8138 524.653 20.1083 518.431 12.2422C512.133 3.45202 504.826 -0.604508 496.508 0.0726513C484.494 1.05077 477.09 7.23529 474.297 18.6262C470.579 30.0924 468.709 41.408 468.688 52.5732C467.667 62.8895 467.27 69.4338 467.495 72.2063C463.229 88.3685 460.839 110.425 460.324 138.375C459.733 165.402 459.755 194.239 460.39 224.887C461.584 285.258 461.386 328.533 459.796 354.71L411.856 297.214C344.563 213.385 284.706 146.626 232.286 96.9375C178.941 47.3238 129.24 25.3222 83.1824 30.9325C79.7867 34.9301 78.3145 39.7014 78.766 45.2463C79.5184 54.4879 85.0044 64.7396 95.2242 76.0013C105.444 87.263 120.585 101.845 140.649 119.748L172.243 147.875C183.387 159.062 217.13 190.735 273.473 242.895C312.6 277.852 344.806 307.79 370.092 332.709C395.378 357.629 414.931 380.69 428.751 401.891C392.678 461.576 348.684 515.393 296.771 563.343C243.933 611.368 174.638 668.641 88.8857 735.161L49.4428 764.885C33.3345 772.709 21.111 782.542 12.7723 794.384C3.43414 805.377 -0.783479 816.419 0.119401 827.509C0.570841 833.054 2.40852 838.486 5.63244 843.805C13.0044 854.369 21.3113 859.274 30.5529 858.522C40.7187 857.694 58.2131 849.758 83.0363 834.713L153.605 775.941C230.567 715.718 295.816 660.171 349.352 609.298C402.888 558.425 439.053 511.292 457.847 467.899L457.994 572.544C457.427 668.41 458.46 732.516 461.093 764.861C462.974 787.965 466.064 803.064 470.362 810.156C474.586 816.324 481.318 819.032 490.56 818.28Z" fill="black"/>
</svg>
