<svg width="508" height="129" viewBox="0 0 508 129" fill="none" xmlns="http://www.w3.org/2000/svg">
<path d="M15.9142 128.433C12.8836 128.433 10.7911 124.969 9.63655 118.042C8.62634 110.971 7.76045 98.5597 7.03888 80.809L6.38946 65.0065C6.10083 59.5225 5.09063 51.0801 3.35885 39.6792C3.21453 38.2361 2.63727 33.8345 1.62707 26.4744C0.616862 19.1144 0.11176 12.6202 0.11176 6.9919C0.11176 6.12601 0.544705 5.04365 1.41059 3.74482C2.27648 2.30166 3.35885 1.58008 4.65768 1.58008C6.53378 1.58008 7.76045 2.44597 8.33771 4.17776C9.05929 5.90954 9.49223 7.64132 9.63655 9.37309C9.92518 10.9606 10.0695 11.9708 10.0695 12.4037C10.9354 14.8571 11.5848 18.2485 12.0177 22.5779C12.4507 26.763 12.8115 31.2368 13.1001 35.9992C13.6774 45.3797 14.2546 52.0903 14.8319 56.1311L21.5425 46.6064C30.923 32.7521 39.3654 21.6399 46.8698 13.2696C54.5185 4.89934 61.9507 0.858517 69.1665 1.14714C69.7437 1.7244 70.0324 2.44598 70.0324 3.31187C70.0324 4.75501 69.3108 6.41464 67.8676 8.29073C66.4245 10.1668 64.2598 12.6202 61.3735 15.6508L56.8275 20.4132C55.2401 22.2893 50.4055 27.6289 42.3239 36.4322C36.6956 42.3491 32.0775 47.4001 28.4697 51.5852C24.8618 55.7704 22.1198 59.5947 20.2437 63.0583C26.5936 71.8615 34.0979 79.6545 42.7568 86.4373C51.56 93.2201 63.0331 101.23 77.176 110.466L83.6701 114.579C86.2678 115.589 88.2882 116.96 89.7314 118.692C91.3188 120.279 92.1126 121.939 92.1126 123.671C92.1126 124.536 91.8961 125.402 91.4631 126.268C90.4529 128 89.2263 128.866 87.7831 128.866C86.1956 128.866 83.3815 127.856 79.3407 125.835L67.6512 117.609C54.9514 109.239 44.1278 101.446 35.1803 94.2303C26.2328 87.0145 20.0272 80.1596 16.5637 73.6654L17.8625 89.9008C19.1613 104.765 19.8108 114.723 19.8108 119.774C19.8108 123.382 19.5221 125.763 18.9449 126.918C18.3676 127.928 17.3574 128.433 15.9142 128.433ZM113.488 128.199C110.435 128.199 107.98 123.753 106.123 114.862C104.265 105.839 103.07 98.0754 102.54 91.5729C102.009 85.0704 101.279 74.7859 100.35 60.7194C100.217 58.4634 100.151 55.5439 100.151 51.9609C100.151 47.449 100.483 44.3305 101.146 42.6054C101.942 40.8802 103.203 40.0176 104.928 40.0176C106.388 40.0176 107.516 40.3494 108.312 41.0129C109.241 41.5437 110.037 42.4726 110.701 43.7997L110.502 51.7619C110.502 60.2549 110.9 68.2835 111.696 75.8476C112.625 83.4117 114.018 93.5635 115.876 106.303C116.938 111.877 117.668 116.455 118.066 120.038C118.331 121.896 117.999 123.753 117.071 125.611C116.142 127.336 114.947 128.199 113.488 128.199ZM108.511 18.7187C105.592 18.7187 103.402 17.5908 101.942 15.3348C100.615 13.0788 99.9518 10.2921 99.9518 6.97448C99.9518 5.51475 100.018 4.45312 100.151 3.78961C100.018 1.66635 101.212 0.604718 103.734 0.604718C105.592 0.604718 107.45 1.06918 109.307 1.99811C111.298 2.79433 111.895 3.39149 111.099 3.78961C112.426 7.23989 113.089 9.96031 113.089 11.9509C113.089 13.676 112.691 15.0694 111.895 16.131C111.099 17.0599 109.971 17.9225 108.511 18.7187ZM179.549 1.00282C184.961 1.00282 190.132 2.38584 195.063 5.15188C199.994 7.79765 203.962 11.2251 206.969 15.4343C210.096 19.6435 211.659 23.8527 211.659 28.0619L207.69 28.0619C205.886 28.0619 204.263 27.5207 202.82 26.4383C201.497 25.356 199.753 23.6122 197.588 21.2069C194.462 17.8396 191.635 15.3141 189.11 13.6304C186.705 11.9467 183.578 11.1049 179.729 11.1049C173.115 11.1049 167.583 14.1716 163.133 20.305C158.683 26.3181 156.038 33.4136 155.196 41.5914C154.835 45.3195 154.655 49.0477 154.655 52.7758C154.655 58.9092 155.076 64.5615 155.917 69.7328C157.481 69.9734 161.149 70.274 166.921 70.6348C172.694 70.9956 177.444 71.2962 181.173 71.5368C182.495 71.5368 185.081 71.657 188.929 71.8976C190.132 71.8976 190.974 72.1982 191.455 72.7995C192.056 73.2806 192.357 74.1825 192.357 75.5054C192.357 78.7525 188.689 80.3761 181.353 80.3761C174.979 80.3761 166.982 79.2336 157.361 76.9486C158.683 82.3604 160.367 87.3513 162.412 91.9213C164.456 96.371 167.102 101.723 170.349 107.976C172.634 112.426 174.318 115.914 175.4 118.439C176.482 120.844 177.023 122.889 177.023 124.573C177.023 125.895 176.603 126.858 175.761 127.459C174.919 127.94 173.716 128.18 172.153 128.18C168.906 128.18 165.839 124.753 162.953 117.898C160.187 110.923 157 101.302 153.392 89.035L150.145 78.3917C147.499 78.6323 144.192 79.3538 140.223 80.5565C139.862 80.6767 138.6 81.0375 136.435 81.6388C134.39 82.1199 132.526 82.3604 130.843 82.3604C128.918 82.3604 127.956 81.2179 127.956 78.9329C127.956 75.9263 129.52 73.942 132.647 72.9799C135.773 71.8976 138.72 71.2962 141.486 71.176C144.252 70.9355 145.996 70.7551 146.717 70.6348C146.477 66.0648 146.357 61.9759 146.357 58.368C146.357 42.8542 148.702 29.4449 153.392 18.1402C158.202 6.71529 166.921 1.00282 179.549 1.00282ZM240.426 128.433C237.395 128.433 235.303 124.969 234.148 118.042C233.138 110.971 232.272 98.5597 231.551 80.809L230.901 65.0065C230.613 59.5225 229.602 51.0801 227.871 39.6792C227.726 38.2361 227.149 33.8345 226.139 26.4744C225.129 19.1144 224.623 12.6202 224.623 6.9919C224.623 6.12601 225.056 5.04365 225.922 3.74482C226.788 2.30166 227.871 1.58008 229.169 1.58008C231.045 1.58008 232.272 2.44597 232.849 4.17776C233.571 5.90954 234.004 7.64132 234.148 9.37309C234.437 10.9606 234.581 11.9708 234.581 12.4037C235.447 14.8571 236.096 18.2485 236.529 22.5779C236.962 26.763 237.323 31.2368 237.612 35.9992C238.189 45.3797 238.766 52.0903 239.344 56.1311L246.054 46.6064C255.435 32.7521 263.877 21.6399 271.381 13.2696C279.03 4.89934 286.462 0.858517 293.678 1.14714C294.255 1.7244 294.544 2.44598 294.544 3.31187C294.544 4.75501 293.822 6.41464 292.379 8.29073C290.936 10.1668 288.771 12.6202 285.885 15.6508L281.339 20.4132C279.752 22.2893 274.917 27.6289 266.836 36.4322C261.207 42.3491 256.589 47.4001 252.981 51.5852C249.373 55.7704 246.631 59.5947 244.755 63.0583C251.105 71.8615 258.61 79.6545 267.269 86.4373C276.072 93.2201 287.545 101.23 301.688 110.466L308.182 114.579C310.779 115.589 312.8 116.96 314.243 118.692C315.83 120.279 316.624 121.939 316.624 123.671C316.624 124.536 316.408 125.402 315.975 126.268C314.965 128 313.738 128.866 312.295 128.866C310.707 128.866 307.893 127.856 303.852 125.835L292.163 117.609C279.463 109.239 268.639 101.446 259.692 94.2303C250.744 87.0145 244.539 80.1596 241.075 73.6654L242.374 89.9008C243.673 104.765 244.322 114.723 244.322 119.774C244.322 123.382 244.034 125.763 243.457 126.918C242.879 127.928 241.869 128.433 240.426 128.433ZM375.82 128C362.019 128 350.009 125.611 339.791 120.834C329.705 115.924 324.663 107.365 324.663 95.1559C324.663 90.7767 325.99 86.5302 328.644 82.4164C331.298 78.3026 335.212 74.985 340.388 72.4636C345.563 69.8096 351.867 68.4825 359.298 68.4825C365.004 68.4825 369.848 68.7479 373.829 69.2787C377.81 69.8096 382.389 71.2693 387.564 73.658C392.739 76.0466 398.114 79.8287 403.687 85.0041C401.564 75.8476 398.379 67.819 394.133 60.9184C389.886 54.0178 385.109 48.7097 379.801 44.994C374.625 41.1456 369.516 39.2214 364.474 39.2214C362.085 39.2214 359.829 39.6859 357.706 40.6148C355.715 41.411 353.26 42.6053 350.341 44.1978C347.023 46.321 344.568 47.3827 342.976 47.3827C342.312 47.3827 341.715 47.1836 341.184 46.7855C340.786 46.2547 340.587 45.6575 340.587 44.994C340.587 39.6859 342.909 35.5721 347.554 32.6526C352.331 29.7331 358.104 28.4061 364.872 28.6715C374.161 29.2023 382.654 33.1834 390.351 40.6148C398.048 47.9135 404.086 57.0037 408.465 67.8854C412.977 78.767 415.233 89.4497 415.233 99.9332C415.233 101.658 415.1 104.113 414.834 107.298L408.465 106.9C403.422 96.682 396.92 89.4497 388.957 85.2031C381.128 80.8239 373.232 78.6343 365.27 78.6343C355.052 78.6343 347.753 80.1604 343.374 83.2126C338.994 86.2648 336.805 90.7103 336.805 96.5493C336.805 102.654 339.857 107.564 345.961 111.279C352.066 114.995 359.895 116.853 369.45 116.853C374.758 116.853 379.005 116.588 382.189 116.057C385.374 115.393 388.692 114.531 392.142 113.469C394.929 112.54 397.384 111.877 399.507 111.478C401.631 111.08 404.351 110.881 407.669 110.881C411.384 110.881 413.707 111.147 414.635 111.677C415.697 112.208 416.228 113.403 416.228 115.26C416.228 116.588 413.507 118.246 408.067 120.237C402.626 122.227 396.521 124.019 389.754 125.611C382.986 127.204 378.341 128 375.82 128ZM475.79 1.00282C481.202 1.00282 486.374 2.38584 491.304 5.15188C496.235 7.79765 500.204 11.2251 503.21 15.4343C506.337 19.6435 507.901 23.8527 507.901 28.0619H503.932C502.128 28.0619 500.504 27.5207 499.061 26.4383C497.738 25.356 495.995 23.6122 493.83 21.2069C490.703 17.8396 487.877 15.3141 485.351 13.6304C482.946 11.9467 479.819 11.1049 475.971 11.1049C469.356 11.1049 463.824 14.1716 459.375 20.305C454.925 26.3181 452.279 33.4136 451.437 41.5914C451.077 45.3195 450.896 49.0477 450.896 52.7758C450.896 58.9092 451.317 64.5615 452.159 69.7328C453.722 69.9734 457.39 70.274 463.163 70.6348C468.936 70.9956 473.686 71.2962 477.414 71.5368C478.737 71.5368 481.323 71.657 485.171 71.8976C486.374 71.8976 487.215 72.1982 487.696 72.7995C488.298 73.2806 488.598 74.1825 488.598 75.5054C488.598 78.7525 484.93 80.3761 477.594 80.3761C471.221 80.3761 463.223 79.2336 453.602 76.9486C454.925 82.3604 456.609 87.3513 458.653 91.9213C460.698 96.371 463.343 101.723 466.59 107.976C468.875 112.426 470.559 115.914 471.641 118.439C472.724 120.844 473.265 122.889 473.265 124.573C473.265 125.895 472.844 126.858 472.002 127.459C471.16 127.94 469.958 128.18 468.394 128.18C465.147 128.18 462.081 124.753 459.194 117.898C456.428 110.923 453.241 101.302 449.633 89.035L446.386 78.3917C443.741 78.6323 440.433 79.3538 436.465 80.5565C436.104 80.6767 434.841 81.0375 432.676 81.6388C430.632 82.1199 428.768 82.3604 427.084 82.3604C425.16 82.3604 424.198 81.2179 424.198 78.9329C424.198 75.9263 425.761 73.942 428.888 72.9799C432.015 71.8976 434.961 71.2962 437.727 71.176C440.493 70.9355 442.237 70.7551 442.959 70.6348C442.718 66.0648 442.598 61.9759 442.598 58.368C442.598 42.8542 444.943 29.4449 449.633 18.1402C454.444 6.71529 463.163 1.00282 475.79 1.00282Z" fill="black"/>
</svg>
