<svg xmlns="http://www.w3.org/2000/svg" width="256" height="256"><path fill="#1976D2" fill-opacity=".016" fill-rule="evenodd" d="M0 128.004v128.004l128.25-.254 128.25-.254.254-127.75L257.008 0H0v128.004m.485.496c0 70.4.119 99.053.265 63.672.146-35.38.146-92.98 0-128C.604 29.153.485 58.1.485 128.5"/><path fill="#1976D2" fill-opacity=".167" fill-rule="evenodd" d="M125.91 39.872c-3.17 2.567-3.911 9.043-4.557 39.798l-.528 25.169-12.572-15.169C91.132 69.01 74.246 52.31 66.278 48.156c-7.492-3.905-15.903-5.297-16.865-2.791-1.445 3.766 1.24 7.045 19.83 24.223C92.16 90.764 115 113.303 115 114.741c0 2.118-12.223 18.037-19.665 25.61-9.074 9.236-28.586 25.713-43.217 36.497C36.976 188.008 34 191.027 34 195.227c0 6.267 5.181 8.478 11.669 4.981 4.235-2.282 35.137-27.361 47.75-38.752 12.237-11.051 18.656-18.046 23.759-25.891l3.861-5.936-.132 27.436c-.134 27.83.509 34.375 3.63 36.966 2.33 1.933 6.256-.343 8.25-4.783 1.46-3.252 1.655-7.285 1.476-30.498-.114-14.713-.058-26.75.123-26.75s2.056 2.813 4.165 6.25c5.371 8.752 21.521 24.351 45.814 44.25 20.8 17.038 27.279 21.5 31.215 21.5 4.736 0 7.122-7.125 3.918-11.7-.826-1.179-6.718-6.062-13.093-10.85-15.259-11.461-35.22-28.028-43.745-36.307-6.403-6.218-17.018-19.072-21.027-25.46-1.729-2.756-1.713-2.888.692-6 4.094-5.296 10.085-11.142 36.838-35.943 14.097-13.068 25.902-24.467 26.234-25.332.332-.864.603-2.715.603-4.114 0-2.462-.168-2.528-5.376-2.096-9.544.792-15.718 4.722-30.185 19.216-7.183 7.197-18.364 19.583-24.847 27.525l-11.786 14.439.717-31.939.718-31.939-2.573-2.75c-3.045-3.255-3.715-3.342-6.758-.878"/><path fill="#1976D2" fill-opacity=".402" fill-rule="evenodd" d="M125.064 40.423c-2.341 2.82-4.213 26.998-3.587 46.327.324 10.037.216 18.25-.241 18.25-.457 0-5.35-5.513-10.874-12.25C82.358 58.592 68.869 46.775 55.5 44.688c-5.148-.804-6.971.301-6.116 3.708.809 3.222 4.26 6.73 27.616 28.068 21.947 20.051 36.6 34.702 37.48 37.473 1.277 4.023-12.969 22.067-27.788 35.196-11.378 10.081-37.425 30.99-44.316 35.574-8.516 5.666-10.894 13.733-4.858 16.483 3.944 1.797 9.07-1.233 27.894-16.489 31.632-25.637 45.844-39.488 52.83-51.49l2.742-4.711.085 28.5c.098 32.847.631 36.319 5.651 36.809 2.698.264 3.435-.181 4.974-3 1.597-2.927 1.841-6.573 2.113-31.557l.307-28.249 4.893 7.316c5.611 8.389 22.473 25.095 38.493 38.136a3938.63 3938.63 0 0 1 20 16.402c14.069 11.643 21.317 13.704 23.107 6.571 1.08-4.3-1.824-8.726-9.027-13.762-8.09-5.654-33.336-25.976-43.84-35.287-4.268-3.784-10.488-10.029-13.824-13.879-6.055-6.989-13.916-18.018-13.916-19.524 0-2.928 22.36-24.991 54.016-53.3 9.17-8.201 12.763-13.203 11.621-16.179-.975-2.54-8.377-1.351-16.637 2.674-8.053 3.924-23.565 19.281-42 41.581-11.17 13.511-12.588 14.887-13.326 12.934-.455-1.202-.284-12.311.38-24.686 1.462-27.276 1.128-36.037-1.488-38.927-2.169-2.396-5.792-2.71-7.502-.65"/><path fill="#1976D2" fill-opacity=".984" fill-rule="evenodd" d="M125.711 40.432C123.35 42.793 122 58.214 122 82.818c0 12.75-.338 23.151-.75 23.114-.412-.037-5.7-6.189-11.75-13.67-14.623-18.081-36.407-40.056-43.272-43.651-2.9-1.518-7.676-3.008-10.614-3.311-11.142-1.15-8.869 2.591 15.05 24.779 25.783 23.916 38.809 36.53 42.501 41.157l2.981 3.736-4.823 7.218c-9.713 14.537-30.523 33.954-61.104 57.014-7.304 5.508-13.94 11.29-14.746 12.849-1.764 3.411-.663 7.24 2.58 8.976 3.423 1.831 9.394-1.96 30.907-19.625 29.982-24.62 43.884-38.537 49.852-49.904l2.1-4 .14 27.5c.085 16.774.59 29.409 1.294 32.395 1.861 7.894 6.158 8.79 9.654 2.013 1.204-2.334 1.566-8.513 1.833-31.312l.332-28.403 2.489 4.381c6.607 11.632 21.007 26.008 47.688 47.611 7.237 5.859 15.183 12.327 17.658 14.372 8.837 7.303 14.73 8.81 17.56 4.492 2.995-4.571.819-7.94-10.56-16.35-29.415-21.743-55.181-45.377-64.825-59.465l-5.317-7.767 2.98-3.733c3.826-4.793 18.753-19.269 42.476-41.193 23.066-21.317 25.502-25.042 16.377-25.04-8.225.001-15.881 4.842-29.771 18.821-6.928 6.973-18.182 19.428-25.008 27.678l-12.412 15-.342-4.5c-.189-2.475.156-15.075.766-28 .682-14.454.765-25.588.214-28.924-1.175-7.128-4.96-10.111-8.427-6.644"/></svg>