<svg width="240" height="206" viewBox="0 0 240 206" fill="none" xmlns="http://www.w3.org/2000/svg">
<path d="M51.3462 197.359C46.8502 191.31 42.6322 185.202 38.7222 178.976C40.2852 176.47 40.6032 173.492 40.0792 170.625C39.8782 169.522 38.2412 169.115 37.5212 169.95C36.5692 171.054 35.8622 172.25 35.4052 173.537C33.5472 170.388 31.7642 167.208 30.0812 163.98C30.3072 163.913 30.5272 163.805 30.7162 163.598C32.9902 161.118 33.5802 157.799 32.7352 154.59C32.4042 153.333 30.4362 152.952 29.8242 154.21C29.2572 155.374 28.6912 156.538 28.1242 157.702C27.9252 158.111 27.7572 158.566 27.5682 158.989C25.8092 155.354 24.1442 151.67 22.6362 147.899C22.7642 147.842 22.8932 147.786 23.0062 147.688C24.8012 146.142 30.2472 141.153 26.2262 138.946C23.7522 137.588 21.9532 140.176 20.7112 142.86C19.0822 138.359 17.6382 133.749 16.4022 129.008C19.9602 128.468 22.3082 124.577 23.1582 121.351C23.5102 120.015 22.0612 118.948 20.8742 119.595C18.5942 120.836 16.7332 122.491 15.3022 124.555C14.3592 120.443 13.5812 116.302 12.9492 112.146C13.2132 112.347 13.5362 112.469 13.8672 112.459C14.7872 112.431 15.2682 112.167 15.7292 111.355C15.9882 110.899 15.9702 110.271 15.6702 109.824C16.4002 108.1 18.5602 105.584 19.2012 104.597C20.0212 103.335 18.6722 102.071 17.4222 102.282C14.7952 102.725 12.9762 104.479 12.2142 106.725C11.7232 102.614 11.3742 98.4907 11.1812 94.3627C11.3642 94.3827 11.5402 94.4057 11.7322 94.4237C12.6032 94.5047 13.0562 93.8577 13.0882 93.1587C15.6252 91.9607 17.5332 89.8317 18.4332 86.9097C18.8632 85.5147 17.3112 84.6347 16.1642 85.1657C14.2732 86.0407 12.5682 87.1387 11.0102 88.4277C10.9552 83.8797 11.0642 79.3317 11.3712 74.7937C11.4992 74.7847 11.6262 74.7847 11.7562 74.7737C12.5952 74.7017 13.0172 74.1377 13.0682 73.5387C15.1652 72.4627 16.9242 70.8587 18.2962 68.7837C19.2202 67.3867 17.1102 65.7587 15.9732 66.9917C14.7952 68.2687 13.4572 69.8507 11.7282 70.3737C12.2022 65.3247 12.8892 60.2927 13.8162 55.2957C15.0302 55.7957 16.8522 55.0737 17.9452 54.6477C19.8692 53.8967 21.5132 52.6417 22.7022 50.9507C23.1282 50.3447 22.7232 49.2287 21.9562 49.1167C19.3902 48.7437 16.5092 49.4357 14.6302 51.2647C15.3082 48.0317 16.0542 44.8097 16.9272 41.6137C17.2542 41.4687 17.5412 41.2087 17.7082 40.8087C18.8382 38.1047 18.7762 35.0427 17.7492 32.3187C17.3872 31.3567 16.2402 30.9417 15.4412 31.7097C13.1322 33.9287 12.7842 38.0517 14.9152 40.4857C14.8972 40.8537 15.0292 41.1477 15.2592 41.3607C14.3692 44.6317 13.5822 47.9247 12.8912 51.2337C11.7802 49.6717 10.5502 48.1537 9.12823 46.9387C7.56223 45.5997 4.89224 45.0357 3.97024 47.4157C3.25024 49.2737 4.41224 51.4657 5.62424 52.8377C6.92024 54.3037 8.85324 55.2587 10.8152 55.2887C11.2422 55.5197 11.6882 55.4147 12.0152 55.1237C12.0542 55.1367 12.0922 55.1507 12.1312 55.1637C11.1922 60.2517 10.4992 65.3757 10.0232 70.5157C8.01424 70.2267 8.01424 68.0787 6.85024 66.5617C5.76324 65.1447 3.25124 64.3757 1.94224 65.9667C0.439238 67.7927 2.35924 70.4387 3.75624 71.6727C4.81724 72.6087 6.22324 73.3137 7.65324 73.4957C7.76124 74.1807 8.28024 74.8267 9.09824 74.8407C9.29424 74.8437 9.48424 74.8407 9.67724 74.8417C9.34024 79.8577 9.24923 84.8867 9.35023 89.9137C9.17723 90.0887 9.02324 90.2887 8.85524 90.4687C7.15024 88.0557 4.69024 86.3777 1.65024 85.8857C0.674238 85.7277 -0.207764 86.4527 0.0432361 87.4927C0.972236 91.3417 4.30124 94.5557 8.39024 94.3197C8.73924 94.4167 9.10624 94.3737 9.42924 94.1307C9.44324 94.1327 9.45724 94.1347 9.47124 94.1367C9.68324 98.9067 10.1022 103.671 10.7062 108.416C8.85824 107.499 7.23024 104.449 5.58924 103.721C4.25624 103.129 2.63724 103.355 1.99724 104.786C0.135239 108.951 8.16924 111.861 10.9602 111.984C11.0572 111.988 11.1382 111.968 11.2182 111.947C11.8102 115.944 12.5062 119.931 13.3832 123.889C13.4372 124.134 13.5012 124.38 13.5572 124.626C11.4982 123.478 9.38724 122.445 7.20224 121.523C6.19224 121.097 5.18524 122.32 5.47024 123.256C6.62124 127.042 10.1692 129.512 14.1332 128.596C14.1842 128.584 14.2202 128.56 14.2622 128.54C14.3452 128.593 14.4322 128.637 14.5152 128.691C15.8892 134.213 17.5502 139.761 19.4692 145.258C17.2732 143.766 14.9662 142.478 12.4932 141.466C11.2842 140.971 10.3322 142.569 10.8882 143.553C12.6982 146.756 15.9092 148.958 19.5702 149.077C19.9812 149.293 20.4862 149.384 20.9202 149.26C22.3382 153.03 23.8952 156.76 25.5792 160.433C23.0602 160.186 20.1032 158.648 17.7022 157.899C16.1272 157.408 15.3612 159.344 16.2312 160.426C18.8372 163.67 23.4232 165.992 27.6142 164.705C29.4312 168.379 31.4042 171.966 33.5032 175.463C31.7552 175.341 30.0092 175.389 28.2272 175.641C26.8712 175.832 27.0012 177.649 27.8832 178.273C29.9092 179.705 33.8262 181.285 36.2752 179.891C40.5182 186.392 45.2682 192.487 50.5842 197.944C50.9592 198.324 51.6802 197.809 51.3462 197.359ZM5.00624 69.5587C4.85024 69.3647 3.50324 67.3887 4.47624 68.2827C5.15824 68.9097 5.49724 69.6727 5.85424 70.4217C5.54724 70.1607 5.26024 69.8757 5.00624 69.5587Z" fill="#1D1D1B"/>
<path d="M188.873 197.943C194.189 192.486 198.939 186.391 203.182 179.89C205.631 181.284 209.548 179.704 211.574 178.272C212.457 177.648 212.587 175.831 211.23 175.64C209.448 175.389 207.703 175.341 205.954 175.462C208.053 171.965 210.026 168.378 211.843 164.704C216.034 165.991 220.62 163.669 223.226 160.425C224.096 159.343 223.329 157.407 221.755 157.898C219.355 158.647 216.398 160.185 213.879 160.432C215.563 156.76 217.121 153.029 218.538 149.259C218.972 149.382 219.477 149.292 219.888 149.076C223.548 148.957 226.759 146.755 228.57 143.552C229.127 142.568 228.174 140.97 226.965 141.465C224.493 142.477 222.185 143.765 219.989 145.257C221.909 139.76 223.569 134.212 224.943 128.69C225.026 128.637 225.113 128.593 225.196 128.539C225.238 128.559 225.274 128.584 225.325 128.595C229.289 129.511 232.837 127.041 233.988 123.255C234.272 122.32 233.266 121.096 232.256 121.522C230.071 122.444 227.96 123.476 225.901 124.625C225.956 124.38 226.02 124.133 226.074 123.888C226.951 119.929 227.646 115.943 228.239 111.946C228.319 111.967 228.4 111.987 228.497 111.983C231.288 111.861 239.323 108.951 237.46 104.785C236.82 103.353 235.202 103.128 233.868 103.72C232.227 104.449 230.599 107.498 228.751 108.415C229.355 103.669 229.774 98.9063 229.986 94.1363C230.001 94.1343 230.014 94.1323 230.028 94.1303C230.351 94.3733 230.718 94.4163 231.067 94.3193C235.157 94.5543 238.485 91.3413 239.414 87.4923C239.665 86.4523 238.783 85.7273 237.807 85.8853C234.767 86.3773 232.307 88.0553 230.602 90.4683C230.434 90.2873 230.28 90.0873 230.107 89.9133C230.208 84.8863 230.117 79.8573 229.78 74.8413C229.973 74.8403 230.163 74.8443 230.359 74.8403C231.177 74.8263 231.696 74.1803 231.804 73.4953C233.234 73.3133 234.64 72.6083 235.701 71.6723C237.099 70.4383 239.018 67.7933 237.515 65.9663C236.206 64.3753 233.693 65.1453 232.607 66.5613C231.443 68.0793 231.444 70.2263 229.435 70.5153C228.959 65.3743 228.266 60.2503 227.327 55.1633C227.366 55.1503 227.404 55.1363 227.443 55.1233C227.769 55.4143 228.215 55.5193 228.642 55.2883C230.604 55.2583 232.537 54.3043 233.833 52.8373C235.045 51.4653 236.207 49.2733 235.487 47.4153C234.565 45.0353 231.895 45.6003 230.329 46.9383C228.907 48.1543 227.676 49.6723 226.565 51.2333C225.874 47.9243 225.087 44.6313 224.197 41.3603C224.427 41.1463 224.559 40.8523 224.542 40.4853C226.673 38.0513 226.325 33.9273 224.016 31.7093C223.218 30.9423 222.071 31.3563 221.708 32.3183C220.681 35.0423 220.619 38.1033 221.749 40.8083C221.916 41.2083 222.203 41.4683 222.53 41.6133C223.404 44.8093 224.149 48.0313 224.827 51.2643C222.948 49.4343 220.067 48.7433 217.501 49.1163C216.734 49.2283 216.329 50.3443 216.755 50.9503C217.944 52.6403 219.587 53.8963 221.512 54.6473C222.605 55.0743 224.427 55.7953 225.641 55.2953C226.568 60.2933 227.255 65.3253 227.729 70.3733C226 69.8513 224.662 68.2683 223.484 66.9913C222.347 65.7583 220.238 67.3853 221.161 68.7833C222.533 70.8583 224.292 72.4623 226.389 73.5383C226.44 74.1383 226.862 74.7013 227.701 74.7733C227.831 74.7843 227.957 74.7843 228.086 74.7933C228.393 79.3313 228.503 83.8793 228.447 88.4273C226.89 87.1383 225.184 86.0403 223.293 85.1653C222.146 84.6343 220.594 85.5143 221.024 86.9093C221.924 89.8313 223.833 91.9593 226.369 93.1583C226.401 93.8583 226.853 94.5043 227.725 94.4233C227.917 94.4053 228.092 94.3823 228.276 94.3623C228.083 98.4903 227.733 102.614 227.243 106.724C226.481 104.478 224.662 102.724 222.035 102.281C220.785 102.07 219.436 103.334 220.256 104.596C220.897 105.583 223.057 108.099 223.787 109.823C223.487 110.27 223.469 110.898 223.728 111.354C224.189 112.166 224.67 112.43 225.59 112.458C225.921 112.468 226.244 112.346 226.508 112.145C225.876 116.302 225.098 120.442 224.155 124.554C222.724 122.49 220.862 120.835 218.583 119.594C217.396 118.948 215.947 120.014 216.299 121.35C217.148 124.576 219.497 128.467 223.055 129.007C221.819 133.748 220.376 138.358 218.746 142.859C217.504 140.175 215.705 137.587 213.231 138.945C209.21 141.152 214.656 146.14 216.451 147.687C216.565 147.785 216.694 147.842 216.822 147.898C215.314 151.669 213.649 155.353 211.89 158.988C211.701 158.565 211.533 158.11 211.334 157.701C210.767 156.537 210.201 155.373 209.634 154.209C209.022 152.952 207.055 153.333 206.723 154.589C205.878 157.799 206.468 161.117 208.742 163.597C208.932 163.804 209.151 163.912 209.377 163.979C207.694 167.208 205.911 170.388 204.053 173.536C203.596 172.248 202.889 171.053 201.937 169.949C201.217 169.114 199.581 169.521 199.379 170.624C198.856 173.491 199.174 176.469 200.736 178.975C196.826 185.201 192.608 191.309 188.112 197.358C187.782 197.808 188.503 198.323 188.873 197.943ZM233.608 70.4213C233.965 69.6733 234.304 68.9103 234.986 68.2823C235.959 67.3883 234.611 69.3633 234.456 69.5583C234.202 69.8753 233.915 70.1603 233.608 70.4213Z" fill="#1D1D1B"/>
<path d="M200.802 74.1392C200.232 49.9202 199.677 25.6852 199.122 1.46622C199.092 0.26622 197.877 -0.317788 196.873 0.176212C172.924 11.7092 145.675 11.8282 121.321 1.58622C120.961 1.13622 120.391 0.851194 119.731 1.00119C119.071 0.851194 118.501 1.13622 118.141 1.58622C93.7874 11.8282 66.5384 11.7092 42.5894 0.176212C41.5844 -0.318788 40.3704 0.26622 40.3394 1.46622C39.7844 25.6852 39.2294 49.9202 38.6594 74.1392C38.1494 96.2442 36.4254 119.114 42.5284 140.649C52.2914 175.066 81.7144 204.819 119.025 205.014C119.355 205.014 119.58 204.909 119.73 204.729C119.88 204.909 120.105 205.014 120.435 205.014C157.747 204.819 187.17 175.066 196.932 140.649C203.036 119.113 201.312 96.2442 200.802 74.1392Z" fill="#1D1D1B"/>
<path d="M116.051 197.431C81.4875 195.643 57.5325 166.064 49.7435 138.603C44.7665 121.042 45.3475 101.807 45.9095 83.205C45.9995 80.231 46.0885 77.264 46.1575 74.311C46.6585 53.038 47.1475 31.748 47.6355 10.467C58.4875 14.515 69.8535 16.554 81.5695 16.554C94.5895 16.554 107.421 14.028 119.733 9.04102C132.046 14.028 144.878 16.555 157.896 16.554C169.625 16.554 181.001 14.511 191.831 10.47C192.319 31.749 192.808 53.039 193.309 74.315C193.377 77.262 193.468 80.227 193.557 83.202C194.119 101.804 194.699 121.041 189.721 138.604C181.934 166.053 157.99 195.62 123.412 197.429L119.733 193.014L116.051 197.431Z" fill="#1D1D1B" stroke="white" stroke-miterlimit="10" stroke-linecap="round" stroke-linejoin="round"/>
<path d="M119.526 129.532C118.007 129.408 117.169 129.899 116.872 126.376C116.654 122.788 116.726 116.527 117.088 107.592L117.407 99.6386C117.485 96.8758 117.323 92.5994 116.92 86.8095C116.906 86.0796 117.229 82.3172 117.023 78.5838C116.817 74.8504 118.335 74.6859 118.564 71.8625C118.599 71.4281 118.077 69.8195 118.564 69.2032C119.057 68.5146 118.473 67.697 119.124 67.75C120.065 67.8265 120.644 68.3109 120.863 69.2032C121.154 70.1014 121.301 70.9878 121.302 71.8625C121.382 72.6706 121.414 73.1833 121.396 73.4004C121.73 74.6665 121.917 76.3943 121.958 78.5838C122.004 80.701 122.003 82.9599 121.953 85.3608C121.86 90.0901 121.876 93.48 122.001 95.5306L125.753 91.0263C131.021 84.459 135.706 79.2289 139.81 75.3361C143.986 71.4491 147.876 69.7253 151.482 70.1644C151.748 70.4775 151.863 70.8513 151.828 71.2857C151.769 72.0096 151.34 72.8127 150.54 73.695C149.74 74.5773 148.555 75.7197 146.984 77.1223L144.511 79.3259C143.638 80.2023 140.997 82.6837 136.587 86.7701C133.524 89.5088 131.003 91.8542 129.023 93.8065C127.044 95.7588 125.513 97.5654 124.432 99.2264C127.256 103.902 130.7 108.117 134.765 111.873C138.902 115.635 144.327 120.121 151.041 125.331L154.129 127.659C155.39 128.272 156.347 129.042 157 129.97C157.731 130.831 158.061 131.696 157.991 132.565C157.955 132.999 157.812 133.424 157.559 133.841C156.982 134.669 156.332 135.053 155.608 134.994C154.813 134.929 153.443 134.308 151.499 133.129L145.974 128.526C139.949 123.809 134.84 119.458 130.649 115.473C126.457 111.488 123.626 107.796 122.154 104.397L122.143 112.595C122.189 120.105 122.108 125.126 121.902 127.66C121.755 129.47 120.781 128.673 120.444 129.229C120.114 129.712 120.249 129.591 119.526 129.532Z" fill="white"/>
<path d="M119.404 131.101C120.924 130.977 121.831 129.154 122.127 125.632C122.345 122.043 122.273 115.782 121.91 106.848L121.59 98.8941C121.511 96.1313 121.673 91.8549 122.076 86.065C122.09 85.3351 122.199 83.1035 122.405 79.3701C122.611 75.6367 122.599 72.3583 122.37 69.5349C122.334 69.1005 122.073 68.5752 121.586 67.959C121.093 67.2704 120.521 66.9526 119.87 67.0057C118.929 67.0823 118.35 67.5668 118.131 68.4591C117.84 69.3573 117.694 70.2437 117.692 71.1184C117.612 71.9265 117.581 72.4392 117.599 72.6564C117.265 73.9224 117.077 75.6503 117.037 77.8398C116.991 79.9569 116.993 82.2159 117.042 84.6168C117.136 89.346 117.12 92.736 116.996 94.7866L113.243 90.2826C107.975 83.7158 103.289 78.4861 99.1848 74.5937C95.0087 70.7072 91.1177 68.9836 87.5121 69.4231C87.2462 69.7363 87.131 70.1101 87.1663 70.5444C87.2252 71.2684 87.6547 72.0714 88.4548 72.9536C89.2548 73.8358 90.4402 74.9782 92.0109 76.3806L94.4843 78.584C95.3567 79.4603 97.9983 81.9414 102.409 86.0275C105.472 88.7658 107.994 91.111 109.973 93.0632C111.953 95.0153 113.483 96.8218 114.565 98.4826C111.741 103.158 108.297 107.374 104.233 111.13C100.097 114.892 94.6718 119.379 87.9585 124.59L84.8707 126.918C83.6096 127.531 82.6527 128.301 81.9999 129.229C81.2688 130.09 80.9387 130.955 81.0093 131.824C81.0447 132.258 81.1886 132.684 81.4409 133.1C82.0181 133.928 82.6684 134.312 83.3919 134.253C84.1877 134.188 85.5573 133.567 87.5006 132.388L93.0252 127.784C99.0503 123.067 104.158 118.715 108.35 114.73C112.541 110.745 115.372 107.053 116.843 103.653L116.855 111.851C116.81 119.361 116.891 124.382 117.097 126.916C117.245 128.726 117.486 129.909 117.823 130.464C118.154 130.948 118.681 131.16 119.404 131.101Z" fill="white"/>
</svg>
