<svg width="436" height="643" viewBox="0 0 436 643" fill="none" xmlns="http://www.w3.org/2000/svg">
<path d="M31.6774 325.306C32.0874 489.033 25.3934 621.771 16.7274 621.794C8.05945 621.817 0.699444 489.11 0.289444 325.384C-0.121556 161.663 6.57144 28.9224 15.2394 28.9004C23.9054 28.8784 31.2664 161.584 31.6774 325.306Z" fill="url(#paint0_radial_4451_14911)"/>
<path d="M435.714 325.306C436.124 489.033 429.431 621.771 420.765 621.794C412.097 621.817 404.736 489.11 404.325 325.384C403.915 161.663 410.608 28.9224 419.276 28.9004C427.942 28.8784 435.304 161.584 435.714 325.306Z" fill="url(#paint1_radial_4451_14911)"/>
<path d="M210.656 0.846119C321.582 0.568119 411.517 7.36912 411.541 16.0361C411.564 24.7031 321.66 31.9561 210.734 32.2351C99.8135 32.5131 9.87452 25.7121 9.85352 17.0441C9.83052 8.37712 99.7335 1.12412 210.656 0.846119Z" fill="url(#paint2_radial_4451_14911)"/>
<path d="M210.656 610.914C321.582 610.637 411.517 617.437 411.541 626.105C411.564 634.773 321.66 642.025 210.734 642.302C99.8135 642.579 9.87452 635.781 9.85352 627.113C9.83052 618.445 99.7335 611.193 210.656 610.914Z" fill="url(#paint3_radial_4451_14911)"/>
<path d="M417.004 21.2715H17.959V627.557H417.004V21.2715Z" fill="white"/>
<path d="M417.004 21.2715H17.959V627.557H417.004V21.2715Z" fill="url(#paint4_linear_4451_14911)"/>
<path d="M416.244 18.9883C416.244 18.9883 423.019 453.51 400.967 530.317L288.422 618.53C288.422 618.53 156.626 625.171 17.1992 625.272V18.9883H416.244Z" fill="#E5E6E7"/>
<path d="M416.244 18.9883C416.244 18.9883 423.019 453.51 400.967 530.317L288.422 618.53C288.422 618.53 156.626 625.171 17.1992 625.272V18.9883H416.244Z" fill="url(#paint5_linear_4451_14911)"/>
<path d="M288.422 618.531C288.422 618.531 315.797 598.763 311.996 553.896C311.996 553.896 361.42 557.695 400.967 530.318L288.422 618.531Z" fill="url(#paint6_linear_4451_14911)"/>
<path d="M65.744 44.519C65.744 40.183 62.23 36.668 57.894 36.668C53.558 36.668 50.043 40.182 50.043 44.519C50.043 48.854 53.558 52.369 57.894 52.369C62.23 52.368 65.744 48.853 65.744 44.519Z" fill="#414042"/>
<path d="M58.75 50.1414C54.415 50.1414 50.899 46.6264 50.899 42.2904C50.899 41.7564 50.956 41.2364 51.057 40.7324C50.431 41.8604 50.043 43.1364 50.043 44.5184C50.043 48.8534 53.558 52.3684 57.894 52.3684C61.696 52.3684 64.864 49.6644 65.586 46.0774C64.248 48.4894 61.705 50.1414 58.75 50.1414Z" fill="#9E9E9E"/>
<path d="M105.642 44.519C105.642 40.183 102.127 36.668 97.7914 36.668C93.4554 36.668 89.9414 40.182 89.9414 44.519C89.9414 48.854 93.4554 52.369 97.7914 52.369C102.127 52.368 105.642 48.853 105.642 44.519Z" fill="#414042"/>
<path d="M98.6465 50.1414C94.3095 50.1414 90.7945 46.6264 90.7945 42.2904C90.7945 41.7564 90.8515 41.2364 90.9525 40.7324C90.3275 41.8604 89.9395 43.1364 89.9395 44.5184C89.9395 48.8534 93.4535 52.3684 97.7895 52.3684C101.592 52.3684 104.759 49.6644 105.481 46.0774C104.144 48.4894 101.601 50.1414 98.6465 50.1414Z" fill="#9E9E9E"/>
<path d="M145.539 44.519C145.539 40.183 142.024 36.668 137.688 36.668C133.353 36.668 129.838 40.182 129.838 44.519C129.838 48.854 133.353 52.369 137.688 52.369C142.024 52.368 145.539 48.853 145.539 44.519Z" fill="#414042"/>
<path d="M138.546 50.1414C134.21 50.1414 130.696 46.6264 130.696 42.2904C130.696 41.7564 130.752 41.2364 130.853 40.7324C130.227 41.8604 129.84 43.1364 129.84 44.5184C129.84 48.8534 133.355 52.3684 137.69 52.3684C141.492 52.3684 144.661 49.6644 145.383 46.0774C144.043 48.4894 141.5 50.1414 138.546 50.1414Z" fill="#9E9E9E"/>
<path d="M185.435 44.519C185.435 40.183 181.92 36.668 177.584 36.668C173.249 36.668 169.734 40.182 169.734 44.519C169.734 48.854 173.249 52.369 177.584 52.369C181.92 52.368 185.435 48.853 185.435 44.519Z" fill="#414042"/>
<path d="M178.439 50.1414C174.103 50.1414 170.588 46.6264 170.588 42.2904C170.588 41.7564 170.644 41.2364 170.745 40.7324C170.12 41.8604 169.732 43.1364 169.732 44.5184C169.732 48.8534 173.247 52.3684 177.582 52.3684C181.385 52.3684 184.552 49.6644 185.275 46.0774C183.937 48.4894 181.394 50.1414 178.439 50.1414Z" fill="#9E9E9E"/>
<path d="M225.331 44.519C225.331 40.183 221.817 36.668 217.483 36.668C213.146 36.668 209.631 40.182 209.631 44.519C209.631 48.854 213.146 52.369 217.483 52.369C221.817 52.368 225.331 48.853 225.331 44.519Z" fill="#414042"/>
<path d="M218.337 50.1414C214.003 50.1414 210.487 46.6264 210.487 42.2904C210.487 41.7564 210.543 41.2364 210.645 40.7324C210.019 41.8604 209.631 43.1364 209.631 44.5184C209.631 48.8534 213.146 52.3684 217.483 52.3684C221.284 52.3684 224.452 49.6644 225.174 46.0774C223.835 48.4894 221.294 50.1414 218.337 50.1414Z" fill="#9E9E9E"/>
<path d="M265.228 44.519C265.228 40.183 261.712 36.668 257.377 36.668C253.043 36.668 249.527 40.182 249.527 44.519C249.527 48.854 253.043 52.369 257.377 52.369C261.713 52.368 265.228 48.853 265.228 44.519Z" fill="#414042"/>
<path d="M258.233 50.1414C253.897 50.1414 250.381 46.6264 250.381 42.2904C250.381 41.7564 250.438 41.2364 250.539 40.7324C249.914 41.8604 249.525 43.1364 249.525 44.5184C249.525 48.8534 253.041 52.3684 257.375 52.3684C261.178 52.3684 264.346 49.6644 265.068 46.0774C263.729 48.4894 261.188 50.1414 258.233 50.1414Z" fill="#9E9E9E"/>
<path d="M305.126 44.519C305.126 40.183 301.61 36.668 297.276 36.668C292.94 36.668 289.424 40.182 289.424 44.519C289.424 48.854 292.94 52.369 297.276 52.369C301.61 52.368 305.126 48.853 305.126 44.519Z" fill="#414042"/>
<path d="M298.132 50.1414C293.796 50.1414 290.28 46.6264 290.28 42.2904C290.28 41.7564 290.337 41.2364 290.438 40.7324C289.813 41.8604 289.424 43.1364 289.424 44.5184C289.424 48.8534 292.94 52.3684 297.276 52.3684C301.077 52.3684 304.245 49.6644 304.967 46.0774C303.628 48.4894 301.087 50.1414 298.132 50.1414Z" fill="#9E9E9E"/>
<path d="M345.02 44.519C345.02 40.183 341.506 36.668 337.17 36.668C332.834 36.668 329.318 40.182 329.318 44.519C329.318 48.854 332.834 52.369 337.17 52.369C341.507 52.368 345.02 48.853 345.02 44.519Z" fill="#414042"/>
<path d="M338.026 50.1414C333.69 50.1414 330.174 46.6264 330.174 42.2904C330.174 41.7564 330.231 41.2364 330.332 40.7324C329.707 41.8604 329.318 43.1364 329.318 44.5184C329.318 48.8534 332.834 52.3684 337.17 52.3684C340.971 52.3684 344.139 49.6644 344.863 46.0774C343.524 48.4894 340.981 50.1414 338.026 50.1414Z" fill="#9E9E9E"/>
<path d="M384.919 44.519C384.919 40.183 381.405 36.668 377.069 36.668C372.733 36.668 369.219 40.182 369.219 44.519C369.219 48.854 372.733 52.369 377.069 52.369C381.405 52.368 384.919 48.853 384.919 44.519Z" fill="#414042"/>
<path d="M377.925 50.1414C373.589 50.1414 370.073 46.6264 370.073 42.2904C370.073 41.7564 370.13 41.2364 370.231 40.7324C369.606 41.8604 369.219 43.1364 369.219 44.5184C369.219 48.8534 372.733 52.3684 377.069 52.3684C380.87 52.3684 384.04 49.6644 384.762 46.0774C383.423 48.4894 380.88 50.1414 377.925 50.1414Z" fill="#9E9E9E"/>
<path d="M56.8714 43.3892C56.8714 44.5822 55.9624 45.5512 54.8434 45.5512C53.7224 45.5512 52.8145 44.5822 52.8145 43.3892V5.40424C52.8145 4.20924 53.7224 3.24023 54.8434 3.24023C55.9624 3.24023 56.8714 4.20924 56.8714 5.40424V43.3892Z" fill="url(#paint7_linear_4451_14911)"/>
<path d="M56.8714 43.3892C56.8714 44.5822 55.9624 45.5512 54.8434 45.5512C53.7224 45.5512 52.8145 44.5822 52.8145 43.3892V5.40424C52.8145 4.20924 53.7224 3.24023 54.8434 3.24023C55.9624 3.24023 56.8714 4.20924 56.8714 5.40424V43.3892Z" fill="url(#paint8_linear_4451_14911)"/>
<path d="M52.8145 43.3892C52.8145 44.5822 53.7225 45.5512 54.8425 45.5512C55.9625 45.5512 56.8705 44.5822 56.8705 43.3892V5.40424C56.8705 4.20924 55.9625 3.24023 54.8425 3.24023C53.7225 3.24023 52.8145 4.20924 52.8145 5.40424V43.3892Z" fill="url(#paint9_linear_4451_14911)"/>
<path d="M63.141 43.3892C63.141 44.5822 62.232 45.5512 61.113 45.5512C59.993 45.5512 59.084 44.5822 59.084 43.3892V5.40424C59.084 4.20924 59.993 3.24023 61.113 3.24023C62.232 3.24023 63.141 4.20924 63.141 5.40424V43.3892Z" fill="url(#paint10_linear_4451_14911)"/>
<path d="M63.141 43.3892C63.141 44.5822 62.232 45.5512 61.113 45.5512C59.993 45.5512 59.084 44.5822 59.084 43.3892V5.40424C59.084 4.20924 59.993 3.24023 61.113 3.24023C62.232 3.24023 63.141 4.20924 63.141 5.40424V43.3892Z" fill="url(#paint11_linear_4451_14911)"/>
<path d="M59.084 43.3892C59.084 44.5822 59.993 45.5512 61.112 45.5512C62.233 45.5512 63.141 44.5822 63.141 43.3892V5.40424C63.141 4.20924 62.233 3.24023 61.112 3.24023C59.993 3.24023 59.084 4.20924 59.084 5.40424V43.3892Z" fill="url(#paint12_linear_4451_14911)"/>
<path d="M96.7933 43.3892C96.7933 44.5822 95.8853 45.5512 94.7653 45.5512C93.6453 45.5512 92.7363 44.5822 92.7363 43.3892V5.40424C92.7363 4.20924 93.6453 3.24023 94.7653 3.24023C95.8853 3.24023 96.7933 4.20924 96.7933 5.40424V43.3892Z" fill="url(#paint13_linear_4451_14911)"/>
<path d="M96.7933 43.3892C96.7933 44.5822 95.8853 45.5512 94.7653 45.5512C93.6453 45.5512 92.7363 44.5822 92.7363 43.3892V5.40424C92.7363 4.20924 93.6453 3.24023 94.7653 3.24023C95.8853 3.24023 96.7933 4.20924 96.7933 5.40424V43.3892Z" fill="url(#paint14_linear_4451_14911)"/>
<path d="M92.7383 43.3892C92.7383 44.5822 93.6463 45.5512 94.7653 45.5512C95.8863 45.5512 96.7943 44.5822 96.7943 43.3892V5.40424C96.7943 4.20924 95.8863 3.24023 94.7653 3.24023C93.6463 3.24023 92.7383 4.20924 92.7383 5.40424V43.3892Z" fill="url(#paint15_linear_4451_14911)"/>
<path d="M103.062 43.3892C103.062 44.5822 102.154 45.5512 101.035 45.5512C99.9149 45.5512 99.0059 44.5822 99.0059 43.3892V5.40424C99.0059 4.20924 99.9149 3.24023 101.035 3.24023C102.154 3.24023 103.062 4.20924 103.062 5.40424V43.3892Z" fill="url(#paint16_linear_4451_14911)"/>
<path d="M103.062 43.3892C103.062 44.5822 102.154 45.5512 101.035 45.5512C99.9149 45.5512 99.0059 44.5822 99.0059 43.3892V5.40424C99.0059 4.20924 99.9149 3.24023 101.035 3.24023C102.154 3.24023 103.062 4.20924 103.062 5.40424V43.3892Z" fill="url(#paint17_linear_4451_14911)"/>
<path d="M99.0059 43.3892C99.0059 44.5822 99.9149 45.5512 101.034 45.5512C102.154 45.5512 103.063 44.5822 103.063 43.3892V5.40424C103.063 4.20924 102.154 3.24023 101.034 3.24023C99.9149 3.24023 99.0059 4.20924 99.0059 5.40424V43.3892Z" fill="url(#paint18_linear_4451_14911)"/>
<path d="M136.717 43.3892C136.717 44.5822 135.809 45.5512 134.689 45.5512C133.569 45.5512 132.66 44.5822 132.66 43.3892V5.40424C132.66 4.20924 133.569 3.24023 134.689 3.24023C135.809 3.24023 136.717 4.20924 136.717 5.40424V43.3892Z" fill="url(#paint19_linear_4451_14911)"/>
<path d="M136.717 43.3892C136.717 44.5822 135.809 45.5512 134.689 45.5512C133.569 45.5512 132.66 44.5822 132.66 43.3892V5.40424C132.66 4.20924 133.569 3.24023 134.689 3.24023C135.809 3.24023 136.717 4.20924 136.717 5.40424V43.3892Z" fill="url(#paint20_linear_4451_14911)"/>
<path d="M132.66 43.3892C132.66 44.5822 133.569 45.5512 134.688 45.5512C135.808 45.5512 136.717 44.5822 136.717 43.3892V5.40424C136.717 4.20924 135.808 3.24023 134.688 3.24023C133.569 3.24023 132.66 4.20924 132.66 5.40424V43.3892Z" fill="url(#paint21_linear_4451_14911)"/>
<path d="M142.986 43.3892C142.986 44.5822 142.078 45.5512 140.958 45.5512C139.838 45.5512 138.93 44.5822 138.93 43.3892V5.40424C138.93 4.20924 139.838 3.24023 140.958 3.24023C142.078 3.24023 142.986 4.20924 142.986 5.40424V43.3892Z" fill="url(#paint22_linear_4451_14911)"/>
<path d="M142.986 43.3892C142.986 44.5822 142.078 45.5512 140.958 45.5512C139.838 45.5512 138.93 44.5822 138.93 43.3892V5.40424C138.93 4.20924 139.838 3.24023 140.958 3.24023C142.078 3.24023 142.986 4.20924 142.986 5.40424V43.3892Z" fill="url(#paint23_linear_4451_14911)"/>
<path d="M138.932 43.3892C138.932 44.5822 139.84 45.5512 140.959 45.5512C142.08 45.5512 142.988 44.5822 142.988 43.3892V5.40424C142.988 4.20924 142.08 3.24023 140.959 3.24023C139.84 3.24023 138.932 4.20924 138.932 5.40424V43.3892Z" fill="url(#paint24_linear_4451_14911)"/>
<path d="M176.638 43.3892C176.638 44.5822 175.73 45.5512 174.61 45.5512C173.49 45.5512 172.582 44.5822 172.582 43.3892V5.40424C172.582 4.20924 173.49 3.24023 174.61 3.24023C175.73 3.24023 176.638 4.20924 176.638 5.40424V43.3892Z" fill="url(#paint25_linear_4451_14911)"/>
<path d="M176.638 43.3892C176.638 44.5822 175.73 45.5512 174.61 45.5512C173.49 45.5512 172.582 44.5822 172.582 43.3892V5.40424C172.582 4.20924 173.49 3.24023 174.61 3.24023C175.73 3.24023 176.638 4.20924 176.638 5.40424V43.3892Z" fill="url(#paint26_linear_4451_14911)"/>
<path d="M172.582 43.3892C172.582 44.5822 173.49 45.5512 174.609 45.5512C175.73 45.5512 176.639 44.5822 176.639 43.3892V5.40424C176.639 4.20924 175.73 3.24023 174.609 3.24023C173.49 3.24023 172.582 4.20924 172.582 5.40424V43.3892Z" fill="url(#paint27_linear_4451_14911)"/>
<path d="M182.908 43.3892C182.908 44.5822 182 45.5512 180.88 45.5512C179.76 45.5512 178.852 44.5822 178.852 43.3892V5.40424C178.852 4.20924 179.76 3.24023 180.88 3.24023C182 3.24023 182.908 4.20924 182.908 5.40424V43.3892Z" fill="url(#paint28_linear_4451_14911)"/>
<path d="M182.908 43.3892C182.908 44.5822 182 45.5512 180.88 45.5512C179.76 45.5512 178.852 44.5822 178.852 43.3892V5.40424C178.852 4.20924 179.76 3.24023 180.88 3.24023C182 3.24023 182.908 4.20924 182.908 5.40424V43.3892Z" fill="url(#paint29_linear_4451_14911)"/>
<path d="M178.852 43.3892C178.852 44.5822 179.76 45.5512 180.879 45.5512C182 45.5512 182.908 44.5822 182.908 43.3892V5.40424C182.908 4.20924 182 3.24023 180.879 3.24023C179.76 3.24023 178.852 4.20924 178.852 5.40424V43.3892Z" fill="url(#paint30_linear_4451_14911)"/>
<path d="M216.563 43.3892C216.563 44.5822 215.655 45.5512 214.534 45.5512C213.413 45.5512 212.506 44.5822 212.506 43.3892V5.40424C212.506 4.20924 213.413 3.24023 214.534 3.24023C215.655 3.24023 216.563 4.20924 216.563 5.40424V43.3892Z" fill="url(#paint31_linear_4451_14911)"/>
<path d="M216.563 43.3892C216.563 44.5822 215.655 45.5512 214.534 45.5512C213.413 45.5512 212.506 44.5822 212.506 43.3892V5.40424C212.506 4.20924 213.413 3.24023 214.534 3.24023C215.655 3.24023 216.563 4.20924 216.563 5.40424V43.3892Z" fill="url(#paint32_linear_4451_14911)"/>
<path d="M212.506 43.3892C212.506 44.5822 213.414 45.5512 214.533 45.5512C215.654 45.5512 216.562 44.5822 216.562 43.3892V5.40424C216.562 4.20924 215.654 3.24023 214.533 3.24023C213.414 3.24023 212.506 4.20924 212.506 5.40424V43.3892Z" fill="url(#paint33_linear_4451_14911)"/>
<path d="M222.829 43.3892C222.829 44.5822 221.921 45.5512 220.802 45.5512C219.681 45.5512 218.773 44.5822 218.773 43.3892V5.40424C218.773 4.20924 219.681 3.24023 220.802 3.24023C221.921 3.24023 222.829 4.20924 222.829 5.40424V43.3892Z" fill="url(#paint34_linear_4451_14911)"/>
<path d="M222.829 43.3892C222.829 44.5822 221.921 45.5512 220.802 45.5512C219.681 45.5512 218.773 44.5822 218.773 43.3892V5.40424C218.773 4.20924 219.681 3.24023 220.802 3.24023C221.921 3.24023 222.829 4.20924 222.829 5.40424V43.3892Z" fill="url(#paint35_linear_4451_14911)"/>
<path d="M218.775 43.3892C218.775 44.5822 219.683 45.5512 220.802 45.5512C221.923 45.5512 222.831 44.5822 222.831 43.3892V5.40424C222.831 4.20924 221.923 3.24023 220.802 3.24023C219.683 3.24023 218.775 4.20924 218.775 5.40424V43.3892Z" fill="url(#paint36_linear_4451_14911)"/>
<path d="M256.484 43.3892C256.484 44.5822 255.576 45.5512 254.455 45.5512C253.336 45.5512 252.428 44.5822 252.428 43.3892V5.40424C252.428 4.20924 253.336 3.24023 254.455 3.24023C255.576 3.24023 256.484 4.20924 256.484 5.40424V43.3892Z" fill="url(#paint37_linear_4451_14911)"/>
<path d="M256.484 43.3892C256.484 44.5822 255.576 45.5512 254.455 45.5512C253.336 45.5512 252.428 44.5822 252.428 43.3892V5.40424C252.428 4.20924 253.336 3.24023 254.455 3.24023C255.576 3.24023 256.484 4.20924 256.484 5.40424V43.3892Z" fill="url(#paint38_linear_4451_14911)"/>
<path d="M252.428 43.3892C252.428 44.5822 253.336 45.5512 254.455 45.5512C255.576 45.5512 256.484 44.5822 256.484 43.3892V5.40424C256.484 4.20924 255.576 3.24023 254.455 3.24023C253.336 3.24023 252.428 4.20924 252.428 5.40424V43.3892Z" fill="url(#paint39_linear_4451_14911)"/>
<path d="M262.753 43.3892C262.753 44.5822 261.843 45.5512 260.724 45.5512C259.605 45.5512 258.695 44.5822 258.695 43.3892V5.40424C258.695 4.20924 259.605 3.24023 260.724 3.24023C261.843 3.24023 262.753 4.20924 262.753 5.40424V43.3892Z" fill="url(#paint40_linear_4451_14911)"/>
<path d="M262.753 43.3892C262.753 44.5822 261.843 45.5512 260.724 45.5512C259.605 45.5512 258.695 44.5822 258.695 43.3892V5.40424C258.695 4.20924 259.605 3.24023 260.724 3.24023C261.843 3.24023 262.753 4.20924 262.753 5.40424V43.3892Z" fill="url(#paint41_linear_4451_14911)"/>
<path d="M258.695 43.3892C258.695 44.5822 259.603 45.5512 260.722 45.5512C261.843 45.5512 262.751 44.5822 262.751 43.3892V5.40424C262.751 4.20924 261.843 3.24023 260.722 3.24023C259.603 3.24023 258.695 4.20924 258.695 5.40424V43.3892Z" fill="url(#paint42_linear_4451_14911)"/>
<path d="M296.406 43.3892C296.406 44.5822 295.498 45.5512 294.379 45.5512C293.258 45.5512 292.35 44.5822 292.35 43.3892V5.40424C292.35 4.20924 293.258 3.24023 294.379 3.24023C295.498 3.24023 296.406 4.20924 296.406 5.40424V43.3892Z" fill="url(#paint43_linear_4451_14911)"/>
<path d="M296.406 43.3892C296.406 44.5822 295.498 45.5512 294.379 45.5512C293.258 45.5512 292.35 44.5822 292.35 43.3892V5.40424C292.35 4.20924 293.258 3.24023 294.379 3.24023C295.498 3.24023 296.406 4.20924 296.406 5.40424V43.3892Z" fill="url(#paint44_linear_4451_14911)"/>
<path d="M292.35 43.3892C292.35 44.5822 293.26 45.5512 294.379 45.5512C295.498 45.5512 296.408 44.5822 296.408 43.3892V5.40424C296.408 4.20924 295.498 3.24023 294.379 3.24023C293.26 3.24023 292.35 4.20924 292.35 5.40424V43.3892Z" fill="url(#paint45_linear_4451_14911)"/>
<path d="M302.677 43.3892C302.677 44.5822 301.769 45.5512 300.648 45.5512C299.529 45.5512 298.621 44.5822 298.621 43.3892V5.40424C298.621 4.20924 299.529 3.24023 300.648 3.24023C301.769 3.24023 302.677 4.20924 302.677 5.40424V43.3892Z" fill="url(#paint46_linear_4451_14911)"/>
<path d="M302.677 43.3892C302.677 44.5822 301.769 45.5512 300.648 45.5512C299.529 45.5512 298.621 44.5822 298.621 43.3892V5.40424C298.621 4.20924 299.529 3.24023 300.648 3.24023C301.769 3.24023 302.677 4.20924 302.677 5.40424V43.3892Z" fill="url(#paint47_linear_4451_14911)"/>
<path d="M298.619 43.3892C298.619 44.5822 299.529 45.5512 300.646 45.5512C301.767 45.5512 302.677 44.5822 302.677 43.3892V5.40424C302.677 4.20924 301.767 3.24023 300.646 3.24023C299.529 3.24023 298.619 4.20924 298.619 5.40424V43.3892Z" fill="url(#paint48_linear_4451_14911)"/>
<path d="M336.33 43.3892C336.33 44.5822 335.42 45.5512 334.301 45.5512C333.18 45.5512 332.271 44.5822 332.271 43.3892V5.40424C332.271 4.20924 333.18 3.24023 334.301 3.24023C335.42 3.24023 336.33 4.20924 336.33 5.40424V43.3892Z" fill="url(#paint49_linear_4451_14911)"/>
<path d="M336.33 43.3892C336.33 44.5822 335.42 45.5512 334.301 45.5512C333.18 45.5512 332.271 44.5822 332.271 43.3892V5.40424C332.271 4.20924 333.18 3.24023 334.301 3.24023C335.42 3.24023 336.33 4.20924 336.33 5.40424V43.3892Z" fill="url(#paint50_linear_4451_14911)"/>
<path d="M332.273 43.3892C332.273 44.5822 333.181 45.5512 334.3 45.5512C335.421 45.5512 336.329 44.5822 336.329 43.3892V5.40424C336.329 4.20924 335.421 3.24023 334.3 3.24023C333.181 3.24023 332.273 4.20924 332.273 5.40424V43.3892Z" fill="url(#paint51_linear_4451_14911)"/>
<path d="M342.597 43.3892C342.597 44.5822 341.689 45.5512 340.57 45.5512C339.449 45.5512 338.541 44.5822 338.541 43.3892V5.40424C338.541 4.20924 339.449 3.24023 340.57 3.24023C341.689 3.24023 342.597 4.20924 342.597 5.40424V43.3892Z" fill="url(#paint52_linear_4451_14911)"/>
<path d="M342.597 43.3892C342.597 44.5822 341.689 45.5512 340.57 45.5512C339.449 45.5512 338.541 44.5822 338.541 43.3892V5.40424C338.541 4.20924 339.449 3.24023 340.57 3.24023C341.689 3.24023 342.597 4.20924 342.597 5.40424V43.3892Z" fill="url(#paint53_linear_4451_14911)"/>
<path d="M338.543 43.3892C338.543 44.5822 339.451 45.5512 340.57 45.5512C341.691 45.5512 342.599 44.5822 342.599 43.3892V5.40424C342.599 4.20924 341.691 3.24023 340.57 3.24023C339.451 3.24023 338.543 4.20924 338.543 5.40424V43.3892Z" fill="url(#paint54_linear_4451_14911)"/>
<path d="M376.251 43.3892C376.251 44.5822 375.343 45.5512 374.222 45.5512C373.103 45.5512 372.193 44.5822 372.193 43.3892V5.40424C372.193 4.20924 373.103 3.24023 374.222 3.24023C375.343 3.24023 376.251 4.20924 376.251 5.40424V43.3892Z" fill="url(#paint55_linear_4451_14911)"/>
<path d="M376.251 43.3892C376.251 44.5822 375.343 45.5512 374.222 45.5512C373.103 45.5512 372.193 44.5822 372.193 43.3892V5.40424C372.193 4.20924 373.103 3.24023 374.222 3.24023C375.343 3.24023 376.251 4.20924 376.251 5.40424V43.3892Z" fill="url(#paint56_linear_4451_14911)"/>
<path d="M372.195 43.3892C372.195 44.5822 373.103 45.5512 374.222 45.5512C375.343 45.5512 376.251 44.5822 376.251 43.3892V5.40424C376.251 4.20924 375.343 3.24023 374.222 3.24023C373.103 3.24023 372.195 4.20924 372.195 5.40424V43.3892Z" fill="url(#paint57_linear_4451_14911)"/>
<path d="M382.521 43.3892C382.521 44.5822 381.611 45.5512 380.492 45.5512C379.371 45.5512 378.463 44.5822 378.463 43.3892V5.40424C378.463 4.20924 379.371 3.24023 380.492 3.24023C381.611 3.24023 382.521 4.20924 382.521 5.40424V43.3892Z" fill="url(#paint58_linear_4451_14911)"/>
<path d="M382.521 43.3892C382.521 44.5822 381.611 45.5512 380.492 45.5512C379.371 45.5512 378.463 44.5822 378.463 43.3892V5.40424C378.463 4.20924 379.371 3.24023 380.492 3.24023C381.611 3.24023 382.521 4.20924 382.521 5.40424V43.3892Z" fill="url(#paint59_linear_4451_14911)"/>
<path d="M378.465 43.3892C378.465 44.5822 379.373 45.5512 380.492 45.5512C381.613 45.5512 382.521 44.5822 382.521 43.3892V5.40424C382.521 4.20924 381.613 3.24023 380.492 3.24023C379.373 3.24023 378.465 4.20924 378.465 5.40424V43.3892Z" fill="url(#paint60_linear_4451_14911)"/>
<path d="M387.057 93.5703H43.207V94.2783H387.057V93.5703Z" fill="#808184"/>
<path d="M387.057 108.973H43.207V109.681H387.057V108.973Z" fill="#808184"/>
<path d="M387.057 124.375H43.207V125.083H387.057V124.375Z" fill="#808184"/>
<path d="M387.057 139.777H43.207V140.485H387.057V139.777Z" fill="#808184"/>
<path d="M387.057 155.18H43.207V155.888H387.057V155.18Z" fill="#808184"/>
<path d="M387.057 170.582H43.207V171.291H387.057V170.582Z" fill="#808184"/>
<path d="M387.057 185.984H43.207V186.692H387.057V185.984Z" fill="#808184"/>
<path d="M387.057 201.387H43.207V202.095H387.057V201.387Z" fill="#808184"/>
<path d="M387.057 216.789H43.207V217.497H387.057V216.789Z" fill="#808184"/>
<path d="M387.057 232.191H43.207V232.899H387.057V232.191Z" fill="#808184"/>
<path d="M387.057 247.594H43.207V248.303H387.057V247.594Z" fill="#808184"/>
<path d="M387.057 262.998H43.207V263.707H387.057V262.998Z" fill="#808184"/>
<path d="M387.057 278.398H43.207V279.107H387.057V278.398Z" fill="#808184"/>
<path d="M387.057 293.801H43.207V294.51H387.057V293.801Z" fill="#808184"/>
<path d="M387.057 309.205H43.207V309.913H387.057V309.205Z" fill="#808184"/>
<path d="M387.057 324.605H43.207V325.313H387.057V324.605Z" fill="#808184"/>
<path d="M387.057 340.01H43.207V340.718H387.057V340.01Z" fill="#808184"/>
<path d="M387.057 355.412H43.207V356.12H387.057V355.412Z" fill="#808184"/>
<path d="M387.057 370.814H43.207V371.523H387.057V370.814Z" fill="#808184"/>
<path d="M387.057 386.217H43.207V386.926H387.057V386.217Z" fill="#808184"/>
<path d="M387.057 401.619H43.207V402.328H387.057V401.619Z" fill="#808184"/>
<path d="M387.057 417.021H43.207V417.73H387.057V417.021Z" fill="#808184"/>
<path d="M387.057 432.424H43.207V433.133H387.057V432.424Z" fill="#808184"/>
<path d="M387.057 447.826H43.207V448.535H387.057V447.826Z" fill="#808184"/>
<path d="M387.057 463.229H43.207V463.938H387.057V463.229Z" fill="#808184"/>
<path d="M387.057 478.631H43.207V479.339H387.057V478.631Z" fill="#808184"/>
<path d="M387.057 494.033H43.207V494.741H387.057V494.033Z" fill="#808184"/>
<path d="M387.057 509.436H43.207V510.145H387.057V509.436Z" fill="#808184"/>
<path d="M387.057 524.838H43.207V525.547H387.057V524.838Z" fill="#808184"/>
<path d="M387.057 540.24H43.207V540.949H387.057V540.24Z" fill="#808184"/>
<path d="M387.057 555.643H43.207V556.352H387.057V555.643Z" fill="#808184"/>
<path d="M387.057 571.045H43.207V571.754H387.057V571.045Z" fill="#808184"/>
<path d="M288.422 618.531C288.422 618.531 315.797 598.763 311.996 553.896C311.996 553.896 361.42 557.695 400.967 530.318L288.422 618.531Z" fill="#D0D2D3"/>
<defs>
<radialGradient id="paint0_radial_4451_14911" cx="0" cy="0" r="1" gradientUnits="userSpaceOnUse" gradientTransform="translate(16.0121 325.306) rotate(-0.142811) scale(14.9958 289.073)">
<stop offset="0.0054" stop-color="#231F20" stop-opacity="0.4"/>
<stop offset="1" stop-color="#231F20" stop-opacity="0"/>
</radialGradient>
<radialGradient id="paint1_radial_4451_14911" cx="0" cy="0" r="1" gradientUnits="userSpaceOnUse" gradientTransform="translate(420.048 325.306) rotate(-0.142811) scale(14.9958 289.073)">
<stop offset="0.0054" stop-color="#231F20" stop-opacity="0.4"/>
<stop offset="1" stop-color="#231F20" stop-opacity="0"/>
</radialGradient>
<radialGradient id="paint2_radial_4451_14911" cx="0" cy="0" r="1" gradientUnits="userSpaceOnUse" gradientTransform="translate(210.764 16.4597) rotate(-90.1428) scale(14.9962 195.85)">
<stop offset="0.0054" stop-color="#231F20" stop-opacity="0.4"/>
<stop offset="1" stop-color="#231F20" stop-opacity="0"/>
</radialGradient>
<radialGradient id="paint3_radial_4451_14911" cx="0" cy="0" r="1" gradientUnits="userSpaceOnUse" gradientTransform="translate(210.765 626.528) rotate(-90.1428) scale(14.9962 195.85)">
<stop offset="0.0054" stop-color="#231F20" stop-opacity="0.4"/>
<stop offset="1" stop-color="#231F20" stop-opacity="0"/>
</radialGradient>
<linearGradient id="paint4_linear_4451_14911" x1="175.667" y1="272.391" x2="403.044" y2="555.283" gradientUnits="userSpaceOnUse">
<stop offset="0.4247" stop-color="#58595B"/>
<stop offset="0.669" stop-color="#5A5B5D" stop-opacity="0.7027"/>
<stop offset="0.8058" stop-color="#626365" stop-opacity="0.5363"/>
<stop offset="0.9157" stop-color="#707173" stop-opacity="0.4026"/>
<stop offset="1" stop-color="#808184" stop-opacity="0.3"/>
</linearGradient>
<linearGradient id="paint5_linear_4451_14911" x1="217.213" y1="16.25" x2="217.213" y2="318.657" gradientUnits="userSpaceOnUse">
<stop stop-color="#D0D2D3"/>
<stop offset="1" stop-color="white" stop-opacity="0"/>
</linearGradient>
<linearGradient id="paint6_linear_4451_14911" x1="346.101" y1="576.349" x2="326.724" y2="549.854" gradientUnits="userSpaceOnUse">
<stop stop-color="#F0F1F1" stop-opacity="0.3"/>
<stop offset="0.0052" stop-color="#CECFCF" stop-opacity="0.305"/>
<stop offset="0.0112" stop-color="#AFB0B0" stop-opacity="0.3107"/>
<stop offset="0.0181" stop-color="#939496" stop-opacity="0.3172"/>
<stop offset="0.0258" stop-color="#7D7E80" stop-opacity="0.3246"/>
<stop offset="0.0348" stop-color="#6C6D6F" stop-opacity="0.3331"/>
<stop offset="0.046" stop-color="#616264" stop-opacity="0.3438"/>
<stop offset="0.0616" stop-color="#5A5B5D" stop-opacity="0.3587"/>
<stop offset="0.105" stop-color="#58595B" stop-opacity="0.4"/>
<stop offset="0.2279" stop-color="#808184" stop-opacity="0.3"/>
<stop offset="0.2785" stop-color="#999A9C" stop-opacity="0.3"/>
<stop offset="0.3563" stop-color="#B8B9BA" stop-opacity="0.3"/>
<stop offset="0.4415" stop-color="#D2D2D4" stop-opacity="0.3"/>
<stop offset="0.535" stop-color="#E6E6E7" stop-opacity="0.3"/>
<stop offset="0.6415" stop-color="#F4F4F5" stop-opacity="0.3"/>
<stop offset="0.7717" stop-color="#FDFDFD" stop-opacity="0.3"/>
<stop offset="0.9945" stop-color="white" stop-opacity="0.3"/>
</linearGradient>
<linearGradient id="paint7_linear_4451_14911" x1="54.8427" y1="1.07753" x2="54.8427" y2="44.3663" gradientUnits="userSpaceOnUse">
<stop stop-color="#8F9193"/>
<stop offset="0.2151" stop-color="#BBBDBF"/>
<stop offset="0.4409" stop-color="white"/>
<stop offset="0.8065" stop-color="#BBBDBF"/>
<stop offset="1" stop-color="#58595B"/>
</linearGradient>
<linearGradient id="paint8_linear_4451_14911" x1="50.8307" y1="24.3957" x2="57.1582" y2="24.3957" gradientUnits="userSpaceOnUse">
<stop stop-color="#58595B"/>
<stop offset="1" stop-color="#E5E6E7" stop-opacity="0"/>
</linearGradient>
<linearGradient id="paint9_linear_4451_14911" x1="58.8545" y1="24.3957" x2="52.5283" y2="24.3957" gradientUnits="userSpaceOnUse">
<stop stop-color="#58595B"/>
<stop offset="1" stop-color="#E5E6E7" stop-opacity="0"/>
</linearGradient>
<linearGradient id="paint10_linear_4451_14911" x1="61.1118" y1="1.07753" x2="61.1118" y2="44.3663" gradientUnits="userSpaceOnUse">
<stop stop-color="#8F9193"/>
<stop offset="0.2151" stop-color="#BBBDBF"/>
<stop offset="0.4409" stop-color="white"/>
<stop offset="0.8065" stop-color="#BBBDBF"/>
<stop offset="1" stop-color="#58595B"/>
</linearGradient>
<linearGradient id="paint11_linear_4451_14911" x1="57.0997" y1="24.3957" x2="63.4273" y2="24.3957" gradientUnits="userSpaceOnUse">
<stop stop-color="#58595B"/>
<stop offset="1" stop-color="#E5E6E7" stop-opacity="0"/>
</linearGradient>
<linearGradient id="paint12_linear_4451_14911" x1="65.125" y1="24.3957" x2="58.7973" y2="24.3957" gradientUnits="userSpaceOnUse">
<stop stop-color="#58595B"/>
<stop offset="1" stop-color="#E5E6E7" stop-opacity="0"/>
</linearGradient>
<linearGradient id="paint13_linear_4451_14911" x1="94.7644" y1="1.07753" x2="94.7644" y2="44.3663" gradientUnits="userSpaceOnUse">
<stop stop-color="#8F9193"/>
<stop offset="0.2151" stop-color="#BBBDBF"/>
<stop offset="0.4409" stop-color="white"/>
<stop offset="0.8065" stop-color="#BBBDBF"/>
<stop offset="1" stop-color="#58595B"/>
</linearGradient>
<linearGradient id="paint14_linear_4451_14911" x1="90.7523" y1="24.3957" x2="97.0799" y2="24.3957" gradientUnits="userSpaceOnUse">
<stop stop-color="#58595B"/>
<stop offset="1" stop-color="#E5E6E7" stop-opacity="0"/>
</linearGradient>
<linearGradient id="paint15_linear_4451_14911" x1="98.7781" y1="24.3957" x2="92.4519" y2="24.3957" gradientUnits="userSpaceOnUse">
<stop stop-color="#58595B"/>
<stop offset="1" stop-color="#E5E6E7" stop-opacity="0"/>
</linearGradient>
<linearGradient id="paint16_linear_4451_14911" x1="101.033" y1="1.07753" x2="101.033" y2="44.3663" gradientUnits="userSpaceOnUse">
<stop stop-color="#8F9193"/>
<stop offset="0.2151" stop-color="#BBBDBF"/>
<stop offset="0.4409" stop-color="white"/>
<stop offset="0.8065" stop-color="#BBBDBF"/>
<stop offset="1" stop-color="#58595B"/>
</linearGradient>
<linearGradient id="paint17_linear_4451_14911" x1="97.022" y1="24.3957" x2="103.348" y2="24.3957" gradientUnits="userSpaceOnUse">
<stop stop-color="#58595B"/>
<stop offset="1" stop-color="#E5E6E7" stop-opacity="0"/>
</linearGradient>
<linearGradient id="paint18_linear_4451_14911" x1="105.047" y1="24.3957" x2="98.7191" y2="24.3957" gradientUnits="userSpaceOnUse">
<stop stop-color="#58595B"/>
<stop offset="1" stop-color="#E5E6E7" stop-opacity="0"/>
</linearGradient>
<linearGradient id="paint19_linear_4451_14911" x1="134.688" y1="1.07753" x2="134.688" y2="44.3663" gradientUnits="userSpaceOnUse">
<stop stop-color="#8F9193"/>
<stop offset="0.2151" stop-color="#BBBDBF"/>
<stop offset="0.4409" stop-color="white"/>
<stop offset="0.8065" stop-color="#BBBDBF"/>
<stop offset="1" stop-color="#58595B"/>
</linearGradient>
<linearGradient id="paint20_linear_4451_14911" x1="130.676" y1="24.3957" x2="137.004" y2="24.3957" gradientUnits="userSpaceOnUse">
<stop stop-color="#58595B"/>
<stop offset="1" stop-color="#E5E6E7" stop-opacity="0"/>
</linearGradient>
<linearGradient id="paint21_linear_4451_14911" x1="138.701" y1="24.3957" x2="132.374" y2="24.3957" gradientUnits="userSpaceOnUse">
<stop stop-color="#58595B"/>
<stop offset="1" stop-color="#E5E6E7" stop-opacity="0"/>
</linearGradient>
<linearGradient id="paint22_linear_4451_14911" x1="140.958" y1="1.07753" x2="140.958" y2="44.3663" gradientUnits="userSpaceOnUse">
<stop stop-color="#8F9193"/>
<stop offset="0.2151" stop-color="#BBBDBF"/>
<stop offset="0.4409" stop-color="white"/>
<stop offset="0.8065" stop-color="#BBBDBF"/>
<stop offset="1" stop-color="#58595B"/>
</linearGradient>
<linearGradient id="paint23_linear_4451_14911" x1="136.946" y1="24.3957" x2="143.273" y2="24.3957" gradientUnits="userSpaceOnUse">
<stop stop-color="#58595B"/>
<stop offset="1" stop-color="#E5E6E7" stop-opacity="0"/>
</linearGradient>
<linearGradient id="paint24_linear_4451_14911" x1="144.971" y1="24.3957" x2="138.645" y2="24.3957" gradientUnits="userSpaceOnUse">
<stop stop-color="#58595B"/>
<stop offset="1" stop-color="#E5E6E7" stop-opacity="0"/>
</linearGradient>
<linearGradient id="paint25_linear_4451_14911" x1="174.609" y1="1.07753" x2="174.609" y2="44.3663" gradientUnits="userSpaceOnUse">
<stop stop-color="#8F9193"/>
<stop offset="0.2151" stop-color="#BBBDBF"/>
<stop offset="0.4409" stop-color="white"/>
<stop offset="0.8065" stop-color="#BBBDBF"/>
<stop offset="1" stop-color="#58595B"/>
</linearGradient>
<linearGradient id="paint26_linear_4451_14911" x1="170.598" y1="24.3957" x2="176.924" y2="24.3957" gradientUnits="userSpaceOnUse">
<stop stop-color="#58595B"/>
<stop offset="1" stop-color="#E5E6E7" stop-opacity="0"/>
</linearGradient>
<linearGradient id="paint27_linear_4451_14911" x1="178.623" y1="24.3957" x2="172.295" y2="24.3957" gradientUnits="userSpaceOnUse">
<stop stop-color="#58595B"/>
<stop offset="1" stop-color="#E5E6E7" stop-opacity="0"/>
</linearGradient>
<linearGradient id="paint28_linear_4451_14911" x1="180.879" y1="1.07753" x2="180.879" y2="44.3663" gradientUnits="userSpaceOnUse">
<stop stop-color="#8F9193"/>
<stop offset="0.2151" stop-color="#BBBDBF"/>
<stop offset="0.4409" stop-color="white"/>
<stop offset="0.8065" stop-color="#BBBDBF"/>
<stop offset="1" stop-color="#58595B"/>
</linearGradient>
<linearGradient id="paint29_linear_4451_14911" x1="176.868" y1="24.3957" x2="183.194" y2="24.3957" gradientUnits="userSpaceOnUse">
<stop stop-color="#58595B"/>
<stop offset="1" stop-color="#E5E6E7" stop-opacity="0"/>
</linearGradient>
<linearGradient id="paint30_linear_4451_14911" x1="184.892" y1="24.3957" x2="178.565" y2="24.3957" gradientUnits="userSpaceOnUse">
<stop stop-color="#58595B"/>
<stop offset="1" stop-color="#E5E6E7" stop-opacity="0"/>
</linearGradient>
<linearGradient id="paint31_linear_4451_14911" x1="214.534" y1="1.07753" x2="214.534" y2="44.3663" gradientUnits="userSpaceOnUse">
<stop stop-color="#8F9193"/>
<stop offset="0.2151" stop-color="#BBBDBF"/>
<stop offset="0.4409" stop-color="white"/>
<stop offset="0.8065" stop-color="#BBBDBF"/>
<stop offset="1" stop-color="#58595B"/>
</linearGradient>
<linearGradient id="paint32_linear_4451_14911" x1="210.521" y1="24.3957" x2="216.849" y2="24.3957" gradientUnits="userSpaceOnUse">
<stop stop-color="#58595B"/>
<stop offset="1" stop-color="#E5E6E7" stop-opacity="0"/>
</linearGradient>
<linearGradient id="paint33_linear_4451_14911" x1="218.545" y1="24.3957" x2="212.219" y2="24.3957" gradientUnits="userSpaceOnUse">
<stop stop-color="#58595B"/>
<stop offset="1" stop-color="#E5E6E7" stop-opacity="0"/>
</linearGradient>
<linearGradient id="paint34_linear_4451_14911" x1="220.801" y1="1.07753" x2="220.801" y2="44.3663" gradientUnits="userSpaceOnUse">
<stop stop-color="#8F9193"/>
<stop offset="0.2151" stop-color="#BBBDBF"/>
<stop offset="0.4409" stop-color="white"/>
<stop offset="0.8065" stop-color="#BBBDBF"/>
<stop offset="1" stop-color="#58595B"/>
</linearGradient>
<linearGradient id="paint35_linear_4451_14911" x1="216.791" y1="24.3957" x2="223.116" y2="24.3957" gradientUnits="userSpaceOnUse">
<stop stop-color="#58595B"/>
<stop offset="1" stop-color="#E5E6E7" stop-opacity="0"/>
</linearGradient>
<linearGradient id="paint36_linear_4451_14911" x1="224.814" y1="24.3957" x2="218.489" y2="24.3957" gradientUnits="userSpaceOnUse">
<stop stop-color="#58595B"/>
<stop offset="1" stop-color="#E5E6E7" stop-opacity="0"/>
</linearGradient>
<linearGradient id="paint37_linear_4451_14911" x1="254.456" y1="1.07753" x2="254.456" y2="44.3663" gradientUnits="userSpaceOnUse">
<stop stop-color="#8F9193"/>
<stop offset="0.2151" stop-color="#BBBDBF"/>
<stop offset="0.4409" stop-color="white"/>
<stop offset="0.8065" stop-color="#BBBDBF"/>
<stop offset="1" stop-color="#58595B"/>
</linearGradient>
<linearGradient id="paint38_linear_4451_14911" x1="250.445" y1="24.3957" x2="256.771" y2="24.3957" gradientUnits="userSpaceOnUse">
<stop stop-color="#58595B"/>
<stop offset="1" stop-color="#E5E6E7" stop-opacity="0"/>
</linearGradient>
<linearGradient id="paint39_linear_4451_14911" x1="258.467" y1="24.3957" x2="252.141" y2="24.3957" gradientUnits="userSpaceOnUse">
<stop stop-color="#58595B"/>
<stop offset="1" stop-color="#E5E6E7" stop-opacity="0"/>
</linearGradient>
<linearGradient id="paint40_linear_4451_14911" x1="260.724" y1="1.07753" x2="260.724" y2="44.3663" gradientUnits="userSpaceOnUse">
<stop stop-color="#8F9193"/>
<stop offset="0.2151" stop-color="#BBBDBF"/>
<stop offset="0.4409" stop-color="white"/>
<stop offset="0.8065" stop-color="#BBBDBF"/>
<stop offset="1" stop-color="#58595B"/>
</linearGradient>
<linearGradient id="paint41_linear_4451_14911" x1="256.711" y1="24.3957" x2="263.04" y2="24.3957" gradientUnits="userSpaceOnUse">
<stop stop-color="#58595B"/>
<stop offset="1" stop-color="#E5E6E7" stop-opacity="0"/>
</linearGradient>
<linearGradient id="paint42_linear_4451_14911" x1="264.735" y1="24.3957" x2="258.409" y2="24.3957" gradientUnits="userSpaceOnUse">
<stop stop-color="#58595B"/>
<stop offset="1" stop-color="#E5E6E7" stop-opacity="0"/>
</linearGradient>
<linearGradient id="paint43_linear_4451_14911" x1="294.378" y1="1.07753" x2="294.378" y2="44.3663" gradientUnits="userSpaceOnUse">
<stop stop-color="#8F9193"/>
<stop offset="0.2151" stop-color="#BBBDBF"/>
<stop offset="0.4409" stop-color="white"/>
<stop offset="0.8065" stop-color="#BBBDBF"/>
<stop offset="1" stop-color="#58595B"/>
</linearGradient>
<linearGradient id="paint44_linear_4451_14911" x1="290.366" y1="24.3957" x2="296.693" y2="24.3957" gradientUnits="userSpaceOnUse">
<stop stop-color="#58595B"/>
<stop offset="1" stop-color="#E5E6E7" stop-opacity="0"/>
</linearGradient>
<linearGradient id="paint45_linear_4451_14911" x1="298.392" y1="24.3957" x2="292.063" y2="24.3957" gradientUnits="userSpaceOnUse">
<stop stop-color="#58595B"/>
<stop offset="1" stop-color="#E5E6E7" stop-opacity="0"/>
</linearGradient>
<linearGradient id="paint46_linear_4451_14911" x1="300.648" y1="1.07753" x2="300.648" y2="44.3663" gradientUnits="userSpaceOnUse">
<stop stop-color="#8F9193"/>
<stop offset="0.2151" stop-color="#BBBDBF"/>
<stop offset="0.4409" stop-color="white"/>
<stop offset="0.8065" stop-color="#BBBDBF"/>
<stop offset="1" stop-color="#58595B"/>
</linearGradient>
<linearGradient id="paint47_linear_4451_14911" x1="296.637" y1="24.3957" x2="302.963" y2="24.3957" gradientUnits="userSpaceOnUse">
<stop stop-color="#58595B"/>
<stop offset="1" stop-color="#E5E6E7" stop-opacity="0"/>
</linearGradient>
<linearGradient id="paint48_linear_4451_14911" x1="304.662" y1="24.3957" x2="298.333" y2="24.3957" gradientUnits="userSpaceOnUse">
<stop stop-color="#58595B"/>
<stop offset="1" stop-color="#E5E6E7" stop-opacity="0"/>
</linearGradient>
<linearGradient id="paint49_linear_4451_14911" x1="334.3" y1="1.07753" x2="334.3" y2="44.3663" gradientUnits="userSpaceOnUse">
<stop stop-color="#8F9193"/>
<stop offset="0.2151" stop-color="#BBBDBF"/>
<stop offset="0.4409" stop-color="white"/>
<stop offset="0.8065" stop-color="#BBBDBF"/>
<stop offset="1" stop-color="#58595B"/>
</linearGradient>
<linearGradient id="paint50_linear_4451_14911" x1="330.287" y1="24.3957" x2="336.616" y2="24.3957" gradientUnits="userSpaceOnUse">
<stop stop-color="#58595B"/>
<stop offset="1" stop-color="#E5E6E7" stop-opacity="0"/>
</linearGradient>
<linearGradient id="paint51_linear_4451_14911" x1="338.313" y1="24.3957" x2="331.987" y2="24.3957" gradientUnits="userSpaceOnUse">
<stop stop-color="#58595B"/>
<stop offset="1" stop-color="#E5E6E7" stop-opacity="0"/>
</linearGradient>
<linearGradient id="paint52_linear_4451_14911" x1="340.568" y1="1.07753" x2="340.568" y2="44.3663" gradientUnits="userSpaceOnUse">
<stop stop-color="#8F9193"/>
<stop offset="0.2151" stop-color="#BBBDBF"/>
<stop offset="0.4409" stop-color="white"/>
<stop offset="0.8065" stop-color="#BBBDBF"/>
<stop offset="1" stop-color="#58595B"/>
</linearGradient>
<linearGradient id="paint53_linear_4451_14911" x1="336.557" y1="24.3957" x2="342.883" y2="24.3957" gradientUnits="userSpaceOnUse">
<stop stop-color="#58595B"/>
<stop offset="1" stop-color="#E5E6E7" stop-opacity="0"/>
</linearGradient>
<linearGradient id="paint54_linear_4451_14911" x1="344.582" y1="24.3957" x2="338.256" y2="24.3957" gradientUnits="userSpaceOnUse">
<stop stop-color="#58595B"/>
<stop offset="1" stop-color="#E5E6E7" stop-opacity="0"/>
</linearGradient>
<linearGradient id="paint55_linear_4451_14911" x1="374.222" y1="1.07753" x2="374.222" y2="44.3663" gradientUnits="userSpaceOnUse">
<stop stop-color="#8F9193"/>
<stop offset="0.2151" stop-color="#BBBDBF"/>
<stop offset="0.4409" stop-color="white"/>
<stop offset="0.8065" stop-color="#BBBDBF"/>
<stop offset="1" stop-color="#58595B"/>
</linearGradient>
<linearGradient id="paint56_linear_4451_14911" x1="370.209" y1="24.3957" x2="376.538" y2="24.3957" gradientUnits="userSpaceOnUse">
<stop stop-color="#58595B"/>
<stop offset="1" stop-color="#E5E6E7" stop-opacity="0"/>
</linearGradient>
<linearGradient id="paint57_linear_4451_14911" x1="378.235" y1="24.3957" x2="371.909" y2="24.3957" gradientUnits="userSpaceOnUse">
<stop stop-color="#58595B"/>
<stop offset="1" stop-color="#E5E6E7" stop-opacity="0"/>
</linearGradient>
<linearGradient id="paint58_linear_4451_14911" x1="380.492" y1="1.07753" x2="380.492" y2="44.3663" gradientUnits="userSpaceOnUse">
<stop stop-color="#8F9193"/>
<stop offset="0.2151" stop-color="#BBBDBF"/>
<stop offset="0.4409" stop-color="white"/>
<stop offset="0.8065" stop-color="#BBBDBF"/>
<stop offset="1" stop-color="#58595B"/>
</linearGradient>
<linearGradient id="paint59_linear_4451_14911" x1="376.479" y1="24.3957" x2="382.808" y2="24.3957" gradientUnits="userSpaceOnUse">
<stop stop-color="#58595B"/>
<stop offset="1" stop-color="#E5E6E7" stop-opacity="0"/>
</linearGradient>
<linearGradient id="paint60_linear_4451_14911" x1="384.504" y1="24.3957" x2="378.178" y2="24.3957" gradientUnits="userSpaceOnUse">
<stop stop-color="#58595B"/>
<stop offset="1" stop-color="#E5E6E7" stop-opacity="0"/>
</linearGradient>
</defs>
</svg>
