<svg width="98" height="141" viewBox="0 0 98 141" fill="none" xmlns="http://www.w3.org/2000/svg">
<path d="M59.2337 0.955078H36.6937C24.1457 0.955078 13.9727 11.1291 13.9727 23.6761V58.3891C13.9727 70.9381 24.1447 81.1101 36.6937 81.1101H59.2337C71.7817 81.1101 81.9547 70.9381 81.9547 58.3891V23.6761C81.9557 11.1291 71.7827 0.955078 59.2337 0.955078ZM72.2807 53.2031C72.2807 62.1781 65.0037 69.4561 56.0267 69.4561H39.9027C30.9257 69.4561 23.6487 62.1781 23.6487 53.2031V28.3701C23.6487 19.3941 30.9247 12.1171 39.9027 12.1171H56.0257C65.0037 12.1171 72.2796 19.3941 72.2796 28.3701V53.2031H72.2807Z" fill="url(#paint0_linear_4675_876)"/>
<path d="M59.1213 7.29102H39.2163C28.1363 7.29102 19.1523 16.273 19.1523 27.355V58.008C19.1523 69.089 28.1363 78.071 39.2163 78.071H59.1213C70.2003 78.071 79.1843 69.089 79.1843 58.008V27.355C79.1843 16.273 70.2003 7.29102 59.1213 7.29102ZM72.2803 52.603C72.2803 61.451 65.0023 68.621 56.0273 68.621H39.9023C30.9273 68.621 23.6493 61.451 23.6493 52.603V28.133C23.6493 19.286 30.9263 12.116 39.9023 12.116H56.0273C65.0023 12.116 72.2803 19.286 72.2803 28.133V52.603Z" fill="url(#paint1_linear_4675_876)"/>
<path d="M78.1031 25.8226V50.0046H79.9661V27.8846C79.9661 17.8796 72.8301 9.54364 63.3711 7.68164C71.7831 9.43464 78.1031 16.8896 78.1031 25.8226Z" fill="url(#paint2_linear_4675_876)"/>
<path d="M20.0366 50.2003V26.0183C20.0366 15.7843 28.3346 7.48633 38.5686 7.48633H36.3216C24.9486 7.48633 15.7266 16.7073 15.7266 28.0823V50.2013L20.0366 50.2003Z" fill="url(#paint3_linear_4675_876)"/>
<path d="M96.1786 47.9372C47.1236 32.4032 2.15656 47.9372 2.15656 47.9372C-7.97244 124.522 49.1676 140.317 49.1676 140.317C109.26 114.146 96.1786 47.9372 96.1786 47.9372ZM49.1676 137.73C49.1676 137.73 -4.99744 122.759 4.60556 50.1632C4.60556 50.1632 47.2306 35.4372 93.7306 50.1632C93.7306 50.1632 106.13 112.924 49.1676 137.73Z" fill="url(#paint4_linear_4675_876)"/>
<path d="M4.60593 50.164C4.60593 50.164 47.2309 35.438 93.7309 50.164C93.7309 50.164 106.131 112.925 49.1679 137.731C49.1679 137.731 -4.99707 122.761 4.60593 50.164Z" fill="url(#paint5_linear_4675_876)"/>
<path d="M14.4512 59.1143C14.4512 59.1143 47.6582 47.6423 83.8832 59.1143C83.8832 59.1143 93.5442 108.008 49.1672 127.332C49.1672 127.332 6.97121 115.669 14.4512 59.1143Z" fill="url(#paint6_linear_4675_876)"/>
<path d="M14.3928 51.3115C15.3158 50.5615 16.6538 50.6765 17.3798 51.5695C18.1058 52.4645 17.9468 53.7965 17.0238 54.5475C16.1008 55.2985 14.7648 55.1835 14.0378 54.2885C13.3118 53.3955 13.4698 52.0625 14.3928 51.3115Z" fill="url(#paint7_linear_4675_876)"/>
<path d="M14.55 51.5079C15.361 50.8479 16.537 50.9489 17.177 51.7359C17.815 52.5219 17.675 53.6939 16.864 54.3529C16.052 55.0129 14.876 54.9109 14.238 54.1249C13.597 53.3409 13.738 52.1679 14.55 51.5079Z" fill="url(#paint8_radial_4675_876)"/>
<path d="M14.3711 53.6932C14.4181 53.7592 14.4681 53.8262 14.5211 53.8892C14.5741 53.9542 14.6291 54.0162 14.6851 54.0762L17.0821 52.1272C17.0351 52.0612 16.9861 51.9942 16.9331 51.9302C16.8791 51.8662 16.8251 51.8022 16.7691 51.7422L14.3711 53.6932Z" fill="#706F6F"/>
<path d="M14.5039 53.6741C14.5379 53.7231 14.5739 53.7731 14.6129 53.8201C14.6529 53.8691 14.6939 53.9141 14.7359 53.9571L16.9499 52.1581C16.9159 52.1061 16.8799 52.0571 16.8409 52.0101C16.8019 51.9611 16.7619 51.9151 16.7189 51.8711L14.5039 53.6741Z" fill="#3C3C3B"/>
<path d="M47.8545 48.0103C48.7775 47.2603 50.1155 47.3763 50.8415 48.2693C51.5675 49.1633 51.4085 50.4953 50.4855 51.2463C49.5625 51.9973 48.2255 51.8813 47.4995 50.9883C46.7725 50.0933 46.9305 48.7613 47.8545 48.0103Z" fill="url(#paint9_linear_4675_876)"/>
<path d="M48.015 48.2047C48.827 47.5457 50.002 47.6457 50.642 48.4327C51.28 49.2177 51.139 50.3897 50.329 51.0497C49.517 51.7097 48.341 51.6087 47.702 50.8237C47.062 50.0377 47.203 48.8647 48.015 48.2047Z" fill="url(#paint10_radial_4675_876)"/>
<path d="M47.832 50.3904C47.88 50.4564 47.93 50.5234 47.983 50.5884C48.036 50.6524 48.091 50.7155 48.146 50.7755L50.544 48.8255C50.497 48.7595 50.448 48.6924 50.394 48.6274C50.341 48.5634 50.286 48.5005 50.231 48.4395L47.832 50.3904Z" fill="#706F6F"/>
<path d="M47.9648 50.3704C47.9988 50.4204 48.0348 50.4694 48.0738 50.5164C48.1138 50.5644 48.1548 50.6094 48.1958 50.6534L50.4098 48.8534C50.3758 48.8024 50.3398 48.7534 50.3008 48.7064C50.2608 48.6584 50.2208 48.6114 50.1788 48.5684L47.9648 50.3704Z" fill="#3C3C3B"/>
<path d="M86.9137 52.4599C87.8367 51.7099 89.1737 51.8249 89.8997 52.7179C90.6267 53.6129 90.4677 54.9449 89.5447 55.6969C88.6217 56.4469 87.2847 56.3309 86.5577 55.4369C85.8307 54.5439 85.9897 53.2099 86.9137 52.4599Z" fill="url(#paint11_linear_4675_876)"/>
<path d="M87.0729 52.6545C87.8849 51.9945 89.0609 52.0955 89.6999 52.8815C90.3399 53.6675 90.1979 54.8395 89.3859 55.5005C88.5749 56.1595 87.3989 56.0585 86.7599 55.2715C86.1209 54.4865 86.2619 53.3145 87.0729 52.6545Z" fill="url(#paint12_radial_4675_876)"/>
<path d="M86.8906 54.8397C86.9386 54.9057 86.9876 54.9727 87.0416 55.0377C87.0936 55.1027 87.1486 55.1627 87.2046 55.2237L89.6026 53.2747C89.5556 53.2097 89.5056 53.1417 89.4536 53.0777C89.4016 53.0127 89.3466 52.9487 89.2906 52.8887L86.8906 54.8397Z" fill="#706F6F"/>
<path d="M87.0234 54.8206C87.0584 54.8696 87.0944 54.9196 87.1334 54.9666C87.1724 55.0156 87.2134 55.0606 87.2564 55.1036L89.4694 53.3036C89.4344 53.2526 89.4004 53.2036 89.3604 53.1566C89.3224 53.1076 89.2814 53.0606 89.2394 53.0176L87.0234 54.8206Z" fill="#3C3C3B"/>
<path d="M47.8512 130.515C48.7742 129.764 50.1122 129.88 50.8372 130.774C51.5642 131.667 51.4052 133 50.4822 133.749C49.5592 134.501 48.2222 134.385 47.4952 133.492C46.7682 132.598 46.9272 131.266 47.8512 130.515Z" fill="url(#paint13_linear_4675_876)"/>
<path d="M48.0104 130.71C48.8234 130.049 49.9984 130.15 50.6374 130.937C51.2764 131.722 51.1354 132.893 50.3234 133.552C49.5114 134.214 48.3364 134.113 47.6974 133.326C47.0584 132.541 47.1994 131.369 48.0104 130.71Z" fill="url(#paint14_radial_4675_876)"/>
<path d="M47.8281 132.893C47.8761 132.96 47.9251 133.026 47.9791 133.091C48.0311 133.155 48.0861 133.218 48.1421 133.277L50.5391 131.329C50.4931 131.262 50.4431 131.195 50.3901 131.131C50.3371 131.067 50.2821 131.004 50.2271 130.943L47.8281 132.893Z" fill="#706F6F"/>
<path d="M47.9609 132.874C47.9959 132.924 48.0309 132.972 48.0709 133.02C48.1099 133.069 48.1509 133.114 48.1929 133.157L50.4059 131.357C50.3719 131.307 50.3369 131.257 50.2969 131.21C50.2579 131.162 50.2169 131.115 50.1759 131.072L47.9609 132.874Z" fill="#3C3C3B"/>
<path d="M7.42119 78.6067C8.34419 77.8567 9.68119 77.9707 10.4072 78.8647C11.1342 79.7587 10.9752 81.0907 10.0522 81.8407C9.1292 82.5927 7.7922 82.4767 7.0652 81.5837C6.3382 80.6907 6.49819 79.3577 7.42119 78.6067Z" fill="url(#paint15_linear_4675_876)"/>
<path d="M7.58052 78.803C8.39252 78.143 9.56852 78.244 10.2075 79.029C10.8465 79.815 10.7065 80.987 9.89452 81.646C9.08252 82.307 7.90752 82.205 7.26852 81.419C6.62852 80.635 6.76952 79.463 7.58052 78.803Z" fill="url(#paint16_radial_4675_876)"/>
<path d="M7.39844 80.9862C7.44644 81.0522 7.49544 81.1192 7.54944 81.1842C7.60144 81.2482 7.65743 81.3112 7.71243 81.3702L10.1094 79.4212C10.0624 79.3552 10.0134 79.2882 9.96043 79.2232C9.90743 79.1592 9.85343 79.0952 9.79743 79.0352L7.39844 80.9862Z" fill="#706F6F"/>
<path d="M7.53125 80.969C7.56625 81.019 7.60225 81.067 7.64225 81.115C7.68125 81.164 7.72225 81.208 7.76425 81.252L9.97825 79.452C9.94425 79.402 9.90926 79.351 9.86926 79.305C9.83126 79.256 9.79025 79.21 9.74825 79.166L7.53125 80.969Z" fill="#3C3C3B"/>
<path d="M19.835 110.375C20.758 109.624 22.096 109.739 22.822 110.633C23.549 111.527 23.39 112.86 22.466 113.609C21.543 114.361 20.205 114.245 19.478 113.352C18.753 112.458 18.912 111.125 19.835 110.375Z" fill="url(#paint17_linear_4675_876)"/>
<path d="M19.9951 110.569C20.8071 109.909 21.9821 110.01 22.6221 110.796C23.2611 111.582 23.1201 112.753 22.3081 113.412C21.4971 114.073 20.3221 113.973 19.6821 113.186C19.0431 112.401 19.1831 111.23 19.9951 110.569Z" fill="url(#paint18_radial_4675_876)"/>
<path d="M19.8125 112.753C19.8605 112.82 19.9105 112.886 19.9635 112.951C20.0165 113.015 20.0705 113.078 20.1265 113.137L22.5235 111.188C22.4765 111.122 22.4285 111.055 22.3745 110.99C22.3215 110.926 22.2675 110.862 22.2115 110.803L19.8125 112.753Z" fill="#706F6F"/>
<path d="M19.9453 112.735C19.9803 112.785 20.0173 112.833 20.0563 112.881C20.0963 112.929 20.1363 112.974 20.1783 113.018L22.3913 111.217C22.3573 111.168 22.3223 111.117 22.2823 111.071C22.2443 111.022 22.2043 110.976 22.1613 110.932L19.9453 112.735Z" fill="#3C3C3B"/>
<path d="M75.6483 109.292C76.5713 108.541 77.9083 108.657 78.6343 109.55C79.3613 110.445 79.2013 111.777 78.2783 112.528C77.3553 113.279 76.0183 113.164 75.2913 112.269C74.5653 111.376 74.7243 110.043 75.6483 109.292Z" fill="url(#paint19_linear_4675_876)"/>
<path d="M75.8044 109.486C76.6164 108.826 77.7914 108.927 78.4304 109.714C79.0694 110.5 78.9294 111.672 78.1174 112.331C77.3054 112.99 76.1294 112.889 75.4914 112.103C74.8514 111.319 74.9914 110.146 75.8044 109.486Z" fill="url(#paint20_radial_4675_876)"/>
<path d="M75.625 111.673C75.673 111.739 75.722 111.806 75.775 111.869C75.828 111.934 75.883 111.996 75.939 112.056L78.336 110.107C78.289 110.041 78.24 109.974 78.187 109.91C78.133 109.845 78.079 109.782 78.023 109.721L75.625 111.673Z" fill="#706F6F"/>
<path d="M75.7578 111.653C75.7928 111.702 75.8288 111.752 75.8678 111.799C75.9068 111.848 75.9478 111.892 75.9898 111.936L78.2038 110.137C78.1698 110.085 78.1338 110.036 78.0948 109.988C78.0548 109.94 78.0158 109.894 77.9728 109.85L75.7578 111.653Z" fill="#3C3C3B"/>
<path d="M86.9319 77.4196C87.8549 76.6686 89.1929 76.7836 89.9199 77.6776C90.6459 78.5716 90.4859 79.9036 89.5629 80.6556C88.6409 81.4056 87.3029 81.2906 86.5769 80.3966C85.8509 79.5026 86.0089 78.1696 86.9319 77.4196Z" fill="url(#paint21_linear_4675_876)"/>
<path d="M87.0935 77.6134C87.9045 76.9534 89.0795 77.0544 89.7205 77.8414C90.3585 78.6274 90.2175 79.7994 89.4065 80.4584C88.5945 81.1194 87.4195 81.0174 86.7805 80.2304C86.1405 79.4454 86.2805 78.2734 87.0935 77.6134Z" fill="url(#paint22_radial_4675_876)"/>
<path d="M86.9102 79.7987C86.9572 79.8647 87.0072 79.9317 87.0602 79.9957C87.1132 80.0607 87.1682 80.1227 87.2232 80.1827L89.6212 78.2327C89.5732 78.1667 89.5252 78.0997 89.4712 78.0357C89.4182 77.9717 89.3632 77.9077 89.3082 77.8477L86.9102 79.7987Z" fill="#706F6F"/>
<path d="M87.043 79.7806C87.077 79.8296 87.114 79.8776 87.153 79.9266C87.193 79.9736 87.233 80.0196 87.275 80.0636L89.489 78.2616C89.455 78.2116 89.419 78.1616 89.38 78.1156C89.341 78.0666 89.301 78.0216 89.258 77.9766L87.043 79.7806Z" fill="#3C3C3B"/>
<path d="M38.3828 100.641C38.3828 105.705 42.6718 109.811 47.9618 109.811C53.2518 109.811 57.5418 105.706 57.5418 100.641C57.5418 97.2341 55.5938 94.2651 52.7098 92.6851L56.5718 71.5391H39.3498L42.8988 92.8671C40.1898 94.4861 38.3828 97.3571 38.3828 100.641Z" fill="url(#paint23_linear_4675_876)"/>
<path d="M39.6328 100.506C39.6328 105.546 43.9018 109.632 49.1658 109.632C54.4318 109.632 58.7008 105.546 58.7008 100.506C58.7008 97.1131 56.7618 94.1591 53.8928 92.5861L57.7368 71.5391H40.5958L44.1278 92.7671C41.4328 94.3801 39.6328 97.2371 39.6328 100.506Z" fill="url(#paint24_linear_4675_876)"/>
<defs>
<linearGradient id="paint0_linear_4675_876" x1="13.9734" y1="41.0322" x2="81.9553" y2="41.0322" gradientUnits="userSpaceOnUse">
<stop stop-color="#424241"/>
<stop offset="0.561" stop-color="white"/>
<stop offset="1" stop-color="#424241"/>
</linearGradient>
<linearGradient id="paint1_linear_4675_876" x1="19.1517" y1="42.6816" x2="79.1839" y2="42.6816" gradientUnits="userSpaceOnUse">
<stop stop-color="white"/>
<stop offset="1" stop-color="#757574"/>
</linearGradient>
<linearGradient id="paint2_linear_4675_876" x1="18.3437" y1="28.8428" x2="79.9663" y2="28.8428" gradientUnits="userSpaceOnUse">
<stop stop-color="#424241"/>
<stop offset="0.561" stop-color="white"/>
<stop offset="1" stop-color="#424241"/>
</linearGradient>
<linearGradient id="paint3_linear_4675_876" x1="15.7271" y1="28.843" x2="77.3479" y2="28.843" gradientUnits="userSpaceOnUse">
<stop stop-color="#424241"/>
<stop offset="0.561" stop-color="white"/>
<stop offset="1" stop-color="#424241"/>
</linearGradient>
<linearGradient id="paint4_linear_4675_876" x1="31.6983" y1="33.9829" x2="77.0769" y2="125.438" gradientUnits="userSpaceOnUse">
<stop stop-color="#424241"/>
<stop offset="0.5659" stop-color="white"/>
<stop offset="1" stop-color="#424241"/>
</linearGradient>
<linearGradient id="paint5_linear_4675_876" x1="3.46443" y1="90.6753" x2="94.8712" y2="90.6753" gradientUnits="userSpaceOnUse">
<stop stop-color="#424241"/>
<stop offset="0.561" stop-color="white"/>
<stop offset="1" stop-color="#424241"/>
</linearGradient>
<linearGradient id="paint6_linear_4675_876" x1="13.5623" y1="90.6741" x2="84.7713" y2="90.6741" gradientUnits="userSpaceOnUse">
<stop stop-color="#424241"/>
<stop offset="0.561" stop-color="white"/>
<stop offset="1" stop-color="#424241"/>
</linearGradient>
<linearGradient id="paint7_linear_4675_876" x1="17.0239" y1="54.5469" x2="14.3932" y2="51.3114" gradientUnits="userSpaceOnUse">
<stop stop-color="#999998"/>
<stop offset="0.5317" stop-color="white"/>
<stop offset="1" stop-color="#424241"/>
</linearGradient>
<radialGradient id="paint8_radial_4675_876" cx="0" cy="0" r="1" gradientUnits="userSpaceOnUse" gradientTransform="translate(15.707 52.9299) rotate(-129.115) scale(1.86395)">
<stop offset="0.4585" stop-color="white"/>
<stop offset="1" stop-color="#424241"/>
</radialGradient>
<linearGradient id="paint9_linear_4675_876" x1="50.4848" y1="51.2456" x2="47.854" y2="48.0101" gradientUnits="userSpaceOnUse">
<stop stop-color="#999998"/>
<stop offset="0.5317" stop-color="white"/>
<stop offset="1" stop-color="#424241"/>
</linearGradient>
<radialGradient id="paint10_radial_4675_876" cx="0" cy="0" r="1" gradientUnits="userSpaceOnUse" gradientTransform="translate(49.1709 49.6273) rotate(-129.115) scale(1.86435)">
<stop offset="0.4585" stop-color="white"/>
<stop offset="1" stop-color="#424241"/>
</radialGradient>
<linearGradient id="paint11_linear_4675_876" x1="89.5445" y1="55.6962" x2="86.9131" y2="52.46" gradientUnits="userSpaceOnUse">
<stop stop-color="#999998"/>
<stop offset="0.5317" stop-color="white"/>
<stop offset="1" stop-color="#424241"/>
</linearGradient>
<radialGradient id="paint12_radial_4675_876" cx="0" cy="0" r="1" gradientUnits="userSpaceOnUse" gradientTransform="translate(88.23 54.0771) rotate(-129.115) scale(1.86435)">
<stop offset="0.4585" stop-color="white"/>
<stop offset="1" stop-color="#424241"/>
</radialGradient>
<linearGradient id="paint13_linear_4675_876" x1="50.4802" y1="133.749" x2="47.8503" y2="130.515" gradientUnits="userSpaceOnUse">
<stop stop-color="#999998"/>
<stop offset="0.5317" stop-color="white"/>
<stop offset="1" stop-color="#424241"/>
</linearGradient>
<radialGradient id="paint14_radial_4675_876" cx="0" cy="0" r="1" gradientUnits="userSpaceOnUse" gradientTransform="translate(49.1668 132.132) rotate(-129.115) scale(1.86375)">
<stop offset="0.4585" stop-color="white"/>
<stop offset="1" stop-color="#424241"/>
</radialGradient>
<linearGradient id="paint15_linear_4675_876" x1="10.0508" y1="81.8422" x2="7.4206" y2="78.6075" gradientUnits="userSpaceOnUse">
<stop stop-color="#999998"/>
<stop offset="0.5317" stop-color="white"/>
<stop offset="1" stop-color="#424241"/>
</linearGradient>
<radialGradient id="paint16_radial_4675_876" cx="0" cy="0" r="1" gradientUnits="userSpaceOnUse" gradientTransform="translate(8.73737 80.2248) rotate(-129.115) scale(1.86405)">
<stop offset="0.4585" stop-color="white"/>
<stop offset="1" stop-color="#424241"/>
</radialGradient>
<linearGradient id="paint17_linear_4675_876" x1="22.465" y1="113.609" x2="19.8351" y2="110.375" gradientUnits="userSpaceOnUse">
<stop stop-color="#999998"/>
<stop offset="0.5317" stop-color="white"/>
<stop offset="1" stop-color="#424241"/>
</linearGradient>
<radialGradient id="paint18_radial_4675_876" cx="0" cy="0" r="1" gradientUnits="userSpaceOnUse" gradientTransform="translate(21.1509 111.991) rotate(-129.115) scale(1.86405)">
<stop offset="0.4585" stop-color="white"/>
<stop offset="1" stop-color="#424241"/>
</radialGradient>
<linearGradient id="paint19_linear_4675_876" x1="78.2782" y1="112.528" x2="75.6477" y2="109.293" gradientUnits="userSpaceOnUse">
<stop stop-color="#999998"/>
<stop offset="0.5317" stop-color="white"/>
<stop offset="1" stop-color="#424241"/>
</linearGradient>
<radialGradient id="paint20_radial_4675_876" cx="0" cy="0" r="1" gradientUnits="userSpaceOnUse" gradientTransform="translate(76.9609 110.909) rotate(-129.115) scale(1.86395)">
<stop offset="0.4585" stop-color="white"/>
<stop offset="1" stop-color="#424241"/>
</radialGradient>
<linearGradient id="paint21_linear_4675_876" x1="89.5633" y1="80.6545" x2="86.9325" y2="77.4191" gradientUnits="userSpaceOnUse">
<stop stop-color="#999998"/>
<stop offset="0.5317" stop-color="white"/>
<stop offset="1" stop-color="#424241"/>
</linearGradient>
<radialGradient id="paint22_radial_4675_876" cx="0" cy="0" r="1" gradientUnits="userSpaceOnUse" gradientTransform="translate(88.25 79.036) rotate(-129.115) scale(1.86405)">
<stop offset="0.4585" stop-color="white"/>
<stop offset="1" stop-color="#424241"/>
</radialGradient>
<linearGradient id="paint23_linear_4675_876" x1="39.1005" y1="71.2954" x2="57.1351" y2="105.503" gradientUnits="userSpaceOnUse">
<stop stop-color="#424241"/>
<stop offset="0.7854" stop-color="white"/>
<stop offset="1" stop-color="#424241"/>
</linearGradient>
<linearGradient id="paint24_linear_4675_876" x1="39.6331" y1="90.5855" x2="58.7015" y2="90.5855" gradientUnits="userSpaceOnUse">
<stop stop-color="#535352"/>
<stop offset="0.3429" stop-color="#464645"/>
<stop offset="0.9678" stop-color="#070707"/>
<stop offset="1"/>
</linearGradient>
</defs>
</svg>
